M48
; DRILL file {KiCad 9.0.7} date 2026-01-19T17:27:04+0000
; FORMAT={-:-/ absolute / inch / decimal}
; #@! TF.CreationDate,2026-01-19T17:27:04+00:00
; #@! TF.GenerationSoftware,Kicad,Pcbnew,9.0.7
; #@! TF.FileFunction,Plated,1,2,PTH
FMAT,2
INCH
; #@! TA.AperFunction,Plated,PTH,ComponentDrill
T1C0.0276
; #@! TA.AperFunction,Plated,PTH,ComponentDrill
T2C0.0315
; #@! TA.AperFunction,Plated,PTH,ComponentDrill
T3C0.0394
%
G90
G05
T1
X4.0535Y-3.188
X4.1535Y-3.088
X4.4384Y-3.2004
X4.5384Y-3.1004
X4.8222Y-3.1906
X4.9222Y-3.0906
X5.1963Y-3.1906
X5.2963Y-3.0906
X5.5604Y-3.1906
X5.6604Y-3.0906
X5.9055Y-3.1864
X6.0055Y-3.0864
X6.2598Y-3.1963
X6.3598Y-3.0963
X6.624Y-3.1963
X6.724Y-3.0963
X6.9768Y-3.1906
X7.0768Y-3.0906
X7.3705Y-3.1906
X7.4705Y-3.0906
T2
X4.7638Y-3.4402
X4.7638Y-3.7402
X5.0Y-3.4425
X5.0Y-3.7425
X5.2264Y-3.4425
X5.2264Y-3.7425
X5.315Y-4.0846
X5.3937Y-4.0846
X5.4626Y-3.4524
X5.4626Y-3.7524
X5.4724Y-4.0846
X5.5512Y-4.0846
X5.6299Y-4.0846
X5.6988Y-3.45
X5.6988Y-3.75
X5.7087Y-4.0846
X5.7874Y-4.0846
X5.8661Y-4.0846
X5.935Y-3.4425
X5.935Y-3.7425
X5.9449Y-4.0846
X6.0236Y-4.0846
X6.1713Y-3.4425
X6.1713Y-3.7425
X6.4272Y-3.4402
X6.4272Y-3.7402
X6.6634Y-3.4449
X6.6634Y-3.7449
X6.8996Y-3.4425
X6.8996Y-3.7425
T3
X4.065Y-3.5236
X4.1909Y-3.5236
M30
