M48
; DRILL file {KiCad 8.0.1} date 2025-11-12T10:25:38+0000
; FORMAT={-:-/ absolute / inch / decimal}
; #@! TF.CreationDate,2025-11-12T10:25:38+00:00
; #@! TF.GenerationSoftware,Kicad,Pcbnew,8.0.1
; #@! TF.FileFunction,Plated,1,2,PTH
FMAT,2
INCH
; #@! TA.AperFunction,Plated,PTH,ViaDrill
T1C0.0118
; #@! TA.AperFunction,Plated,PTH,ComponentDrill
T2C0.0276
; #@! TA.AperFunction,Plated,PTH,ComponentDrill
T3C0.0315
; #@! TA.AperFunction,Plated,PTH,ComponentDrill
T4C0.0394
; #@! TA.AperFunction,Plated,PTH,ComponentDrill
T5C0.0433
%
G90
G05
T1
X4.4587Y-2.2441
X4.5768Y-2.0669
X4.7244Y-1.1417
X4.7638Y-2.1752
X4.8228Y-1.4272
X4.8819Y-1.1417
X4.9311Y-1.3189
X5.0886Y-2.7461
X5.0984Y-1.7224
X5.1575Y-2.6083
X5.1673Y-2.5531
X5.187Y-2.5043
X5.2362Y-1.3484
X5.2854Y-1.811
X5.2854Y-2.0866
X5.3248Y-2.0472
X5.3248Y-2.6378
X5.3248Y-3.5531
X5.3622Y-2.2559
X5.4232Y-0.8858
X5.4232Y-1.6339
X5.4429Y-1.3484
X5.4429Y-2.6772
X5.4528Y-0.9646
X5.4724Y-1.8307
X5.4724Y-2.0177
X5.4724Y-2.3327
X5.4823Y-1.1024
X5.502Y-2.628
X5.5118Y-2.7264
X5.5512Y-1.3189
X5.5571Y-0.8268
X5.561Y-1.1516
X5.5807Y-0.7283
X5.5807Y-1.7224
X5.5906Y-1.5453
X5.6004Y-0.6929
X5.6043Y-0.8504
X5.6046Y-0.753
X5.6299Y-1.2953
X5.6594Y-2.8051
X5.6693Y-0.9941
X5.6791Y-0.7185
X5.6791Y-3.563
X5.6793Y-0.9642
X5.689Y-2.7461
X5.7185Y-1.0335
X5.7382Y-1.122
X5.748Y-0.9547
X5.7579Y-3.0118
X5.7677Y-1.2205
X5.7677Y-3.6772
X5.7677Y-3.7795
X5.7874Y-2.6181
X5.9843Y-3.0118
X6.0236Y-3.1398
X6.1713Y-1.4961
X6.1811Y-3.248
X6.2303Y-1.752
X6.3484Y-3.622
X6.4173Y-3.9469
X6.4862Y-3.6122
X6.4961Y-3.3563
X6.5059Y-3.002
X6.5146Y-3.5087
X6.5256Y-2.4114
X6.5453Y-3.3465
X6.6165Y-3.189
X6.7697Y-3.0886
X6.8406Y-3.3465
X6.8996Y-2.9921
X6.9882Y-3.4449
X7.3031Y-2.313
X7.313Y-1.7421
T2
X4.5843Y-3.937
X4.8843Y-3.937
X6.1689Y-0.9252
X6.4689Y-0.9252
T3
X4.3307Y-2.7264
X4.3307Y-2.8051
X4.3307Y-2.8839
X4.3307Y-2.9626
X4.3307Y-3.0413
X4.3307Y-3.1201
X4.3307Y-3.1988
X4.3307Y-3.2776
X4.3504Y-1.8209
X4.3504Y-1.8996
X4.3504Y-1.9783
X4.3504Y-2.0571
X4.3504Y-2.1358
X4.3504Y-2.2146
X4.3504Y-2.2933
X4.3504Y-2.372
X4.5965Y-1.0205
X4.5965Y-1.4205
X4.6063Y-3.5138
X4.6063Y-3.7303
X4.6654Y-1.5453
X4.7933Y-0.9941
X4.9016Y-3.5138
X4.9016Y-3.7303
X4.9606Y-1.5453
X5.0886Y-0.9941
X5.1157Y-3.7008
X5.4157Y-3.7008
X5.6004Y-2.0807
X5.6004Y-2.1807
X5.6004Y-2.2807
X5.6004Y-2.3807
X5.6004Y-2.4807
X5.6004Y-2.5807
X5.6004Y-2.6807
X5.6004Y-2.7807
X5.6004Y-2.8807
X5.6004Y-2.9807
X5.6004Y-3.0807
X5.6004Y-3.1807
X5.6004Y-3.2807
X5.6004Y-3.3807
X5.8957Y-1.1614
X5.8957Y-1.4567
X5.9004Y-2.0807
X5.9004Y-2.1807
X5.9004Y-2.2807
X5.9004Y-2.3807
X5.9004Y-2.4807
X5.9004Y-2.5807
X5.9004Y-2.6807
X5.9004Y-2.7807
X5.9004Y-2.8807
X5.9004Y-2.9807
X5.9004Y-3.0807
X5.9004Y-3.1807
X5.9004Y-3.2807
X5.9004Y-3.3807
X6.1287Y-1.3091
X6.1713Y-2.7559
X6.1713Y-3.0512
X6.1811Y-1.122
X6.4764Y-1.122
X6.5287Y-1.3091
X6.7224Y-1.4075
X6.8406Y-2.4114
X6.8406Y-2.7067
X7.0177Y-1.4075
X7.2146Y-1.752
X7.2146Y-1.8307
X7.2146Y-1.9094
X7.2146Y-1.9882
X7.2146Y-2.0669
X7.2146Y-2.1457
X7.2343Y-2.5197
X7.2343Y-2.5984
X7.2343Y-2.6772
X7.2343Y-2.7559
X7.2343Y-2.8346
X7.2343Y-2.9134
X7.2343Y-2.9921
X7.2343Y-3.0709
X7.2343Y-3.1496
X7.2343Y-3.2283
T4
X5.0492Y-1.2008
X5.0492Y-1.2992
X5.0492Y-1.3976
X6.4929Y-3.8091
X6.4929Y-3.9091
X6.5929Y-3.8091
X6.5929Y-3.9091
X6.6929Y-3.8091
X6.6929Y-3.9091
T5
X6.752Y-0.8957
X6.752Y-1.1516
X6.9291Y-0.8957
X6.9291Y-1.1516
M30
