%TF.GenerationSoftware,KiCad,Pcbnew,8.0.1*%
%TF.CreationDate,2025-12-08T14:47:00+00:00*%
%TF.ProjectId,Electric Field Detection LED Bar Circuit,456c6563-7472-4696-9320-4669656c6420,rev?*%
%TF.SameCoordinates,Original*%
%TF.FileFunction,Copper,L1,Top*%
%TF.FilePolarity,Positive*%
%FSLAX46Y46*%
G04 Gerber Fmt 4.6, Leading zero omitted, Abs format (unit mm)*
G04 Created by KiCad (PCBNEW 8.0.1) date 2025-12-08 14:47:00*
%MOMM*%
%LPD*%
G01*
G04 APERTURE LIST*
%TA.AperFunction,ComponentPad*%
%ADD10C,1.600000*%
%TD*%
%TA.AperFunction,ComponentPad*%
%ADD11O,1.600000X1.600000*%
%TD*%
%TA.AperFunction,ComponentPad*%
%ADD12R,1.750000X1.750000*%
%TD*%
%TA.AperFunction,ComponentPad*%
%ADD13C,1.750000*%
%TD*%
%TA.AperFunction,ComponentPad*%
%ADD14R,1.350000X1.350000*%
%TD*%
%TA.AperFunction,ComponentPad*%
%ADD15O,1.350000X1.350000*%
%TD*%
%TA.AperFunction,ComponentPad*%
%ADD16R,1.600000X1.600000*%
%TD*%
%TA.AperFunction,Conductor*%
%ADD17C,0.200000*%
%TD*%
G04 APERTURE END LIST*
D10*
%TO.P,R5,1*%
%TO.N,Net-(D8-A)*%
X150750000Y-87440000D03*
D11*
%TO.P,R5,2*%
%TO.N,Net-(J1-Pin_5)*%
X150750000Y-95060000D03*
%TD*%
D12*
%TO.P,D8,1,K*%
%TO.N,Net-(BZ1--)*%
X152540000Y-78395639D03*
D13*
%TO.P,D8,2,A*%
%TO.N,Net-(D8-A)*%
X150000000Y-80935639D03*
%TD*%
D12*
%TO.P,D9,1,K*%
%TO.N,Net-(BZ1--)*%
X134525000Y-78500000D03*
D13*
%TO.P,D9,2,A*%
%TO.N,Net-(D9-A)*%
X131985000Y-81040000D03*
%TD*%
D10*
%TO.P,R2,1*%
%TO.N,Net-(D6-A)*%
X169250000Y-87500000D03*
D11*
%TO.P,R2,2*%
%TO.N,Net-(J1-Pin_2)*%
X169250000Y-95120000D03*
%TD*%
D12*
%TO.P,D6,1,K*%
%TO.N,Net-(BZ1--)*%
X179750000Y-78500000D03*
D13*
%TO.P,D6,2,A*%
%TO.N,Net-(D6-A)*%
X177210000Y-81040000D03*
%TD*%
D10*
%TO.P,R4,1*%
%TO.N,Net-(D7-A)*%
X156750000Y-87440000D03*
D11*
%TO.P,R4,2*%
%TO.N,Net-(J1-Pin_4)*%
X156750000Y-95060000D03*
%TD*%
D14*
%TO.P,J1,1,Pin_1*%
%TO.N,Net-(J1-Pin_1)*%
X153000000Y-103750000D03*
D15*
%TO.P,J1,2,Pin_2*%
%TO.N,Net-(J1-Pin_2)*%
X151000000Y-103750000D03*
%TO.P,J1,3,Pin_3*%
%TO.N,Net-(J1-Pin_3)*%
X149000000Y-103750000D03*
%TO.P,J1,4,Pin_4*%
%TO.N,Net-(J1-Pin_4)*%
X147000000Y-103750000D03*
%TO.P,J1,5,Pin_5*%
%TO.N,Net-(J1-Pin_5)*%
X145000000Y-103750000D03*
%TO.P,J1,6,Pin_6*%
%TO.N,Net-(J1-Pin_6)*%
X143000000Y-103750000D03*
%TO.P,J1,7,Pin_7*%
%TO.N,Net-(J1-Pin_7)*%
X141000000Y-103750000D03*
%TO.P,J1,8,Pin_8*%
%TO.N,Net-(J1-Pin_8)*%
X139000000Y-103750000D03*
%TO.P,J1,9,Pin_9*%
%TO.N,Net-(J1-Pin_9)*%
X137000000Y-103750000D03*
%TO.P,J1,10,Pin_10*%
%TO.N,Net-(J1-Pin_10)*%
X135000000Y-103750000D03*
%TD*%
D12*
%TO.P,D1,1,K*%
%TO.N,Net-(BZ1--)*%
X170790000Y-78645639D03*
D13*
%TO.P,D1,2,A*%
%TO.N,Net-(D1-A)*%
X168250000Y-81185639D03*
%TD*%
D10*
%TO.P,R3,1*%
%TO.N,Net-(D1-A)*%
X163250000Y-87380000D03*
D11*
%TO.P,R3,2*%
%TO.N,Net-(J1-Pin_3)*%
X163250000Y-95000000D03*
%TD*%
D10*
%TO.P,R10,1*%
%TO.N,Net-(BZ1-+)*%
X121000000Y-87380000D03*
D11*
%TO.P,R10,2*%
%TO.N,Net-(J1-Pin_10)*%
X121000000Y-95000000D03*
%TD*%
D12*
%TO.P,D4,1,K*%
%TO.N,Net-(BZ1--)*%
X105500000Y-78435639D03*
D13*
%TO.P,D4,2,A*%
%TO.N,Net-(BZ1-+)*%
X102960000Y-80975639D03*
%TD*%
D12*
%TO.P,D5,1,K*%
%TO.N,Net-(BZ1--)*%
X189750000Y-78500000D03*
D13*
%TO.P,D5,2,A*%
%TO.N,Net-(D5-A)*%
X187210000Y-81040000D03*
%TD*%
D10*
%TO.P,R8,1*%
%TO.N,Net-(D3-A)*%
X132750000Y-87440000D03*
D11*
%TO.P,R8,2*%
%TO.N,Net-(J1-Pin_8)*%
X132750000Y-95060000D03*
%TD*%
D12*
%TO.P,D3,1,K*%
%TO.N,Net-(BZ1--)*%
X125025000Y-78500000D03*
D13*
%TO.P,D3,2,A*%
%TO.N,Net-(D3-A)*%
X122485000Y-81040000D03*
%TD*%
D10*
%TO.P,R9,1*%
%TO.N,Net-(D10-A)*%
X127000000Y-87440000D03*
D11*
%TO.P,R9,2*%
%TO.N,Net-(J1-Pin_9)*%
X127000000Y-95060000D03*
%TD*%
D10*
%TO.P,R6,1*%
%TO.N,Net-(D2-A)*%
X144750000Y-87630000D03*
D11*
%TO.P,R6,2*%
%TO.N,Net-(J1-Pin_6)*%
X144750000Y-95250000D03*
%TD*%
D12*
%TO.P,D2,1,K*%
%TO.N,Net-(BZ1--)*%
X143775000Y-78500000D03*
D13*
%TO.P,D2,2,A*%
%TO.N,Net-(D2-A)*%
X141235000Y-81040000D03*
%TD*%
D10*
%TO.P,R7,1*%
%TO.N,Net-(D9-A)*%
X138750000Y-87690000D03*
D11*
%TO.P,R7,2*%
%TO.N,Net-(J1-Pin_7)*%
X138750000Y-95310000D03*
%TD*%
D16*
%TO.P,BZ1,1,+*%
%TO.N,Net-(BZ1-+)*%
X103250000Y-89500000D03*
D10*
%TO.P,BZ1,2,-*%
%TO.N,Net-(BZ1--)*%
X106450000Y-89500000D03*
%TD*%
%TO.P,R1,1*%
%TO.N,Net-(D5-A)*%
X175250000Y-87440000D03*
D11*
%TO.P,R1,2*%
%TO.N,Net-(J1-Pin_1)*%
X175250000Y-95060000D03*
%TD*%
D12*
%TO.P,D10,1,K*%
%TO.N,Net-(BZ1--)*%
X115275000Y-78750000D03*
D13*
%TO.P,D10,2,A*%
%TO.N,Net-(D10-A)*%
X112735000Y-81290000D03*
%TD*%
D12*
%TO.P,D7,1,K*%
%TO.N,Net-(BZ1--)*%
X161540000Y-78645639D03*
D13*
%TO.P,D7,2,A*%
%TO.N,Net-(D7-A)*%
X159000000Y-81185639D03*
%TD*%
D17*
%TO.N,Net-(BZ1-+)*%
X102960000Y-89210000D02*
X103250000Y-89500000D01*
X104250000Y-89500000D02*
X108250000Y-93500000D01*
X103250000Y-89500000D02*
X104250000Y-89500000D01*
X114000000Y-87500000D02*
X114120000Y-87380000D01*
X114120000Y-87380000D02*
X121000000Y-87380000D01*
X114000000Y-93500000D02*
X114000000Y-87500000D01*
X108250000Y-93500000D02*
X114000000Y-93500000D01*
X102960000Y-80975639D02*
X102960000Y-89210000D01*
%TO.N,Net-(BZ1--)*%
X105532181Y-78467819D02*
X105532181Y-83032181D01*
X152790000Y-78645639D02*
X152540000Y-78395639D01*
X105500000Y-78435639D02*
X105532181Y-78467819D01*
X189750000Y-78500000D02*
X179750000Y-78500000D01*
X161540000Y-78645639D02*
X152790000Y-78645639D01*
X106750000Y-84750000D02*
X106450000Y-85050000D01*
X106750000Y-84250000D02*
X106750000Y-84750000D01*
X179750000Y-78500000D02*
X179500000Y-78500000D01*
X125025000Y-78500000D02*
X115525000Y-78500000D01*
X115525000Y-78500000D02*
X115275000Y-78750000D01*
X179500000Y-78500000D02*
X179354361Y-78645639D01*
X115275000Y-78750000D02*
X105814361Y-78750000D01*
X105814361Y-78750000D02*
X105500000Y-78435639D01*
X143879361Y-78395639D02*
X143775000Y-78500000D01*
X105532181Y-83032181D02*
X106750000Y-84250000D01*
X179354361Y-78645639D02*
X170790000Y-78645639D01*
X134525000Y-78500000D02*
X125025000Y-78500000D01*
X106450000Y-85050000D02*
X106450000Y-89500000D01*
X152540000Y-78395639D02*
X143879361Y-78395639D01*
X170790000Y-78645639D02*
X161540000Y-78645639D01*
X143775000Y-78500000D02*
X134525000Y-78500000D01*
%TO.N,Net-(D1-A)*%
X162750000Y-85000000D02*
X163250000Y-85500000D01*
X163250000Y-85500000D02*
X163250000Y-87380000D01*
X166564361Y-81185639D02*
X162750000Y-85000000D01*
X168250000Y-81185639D02*
X166564361Y-81185639D01*
%TO.N,Net-(D2-A)*%
X143500000Y-84500000D02*
X144750000Y-85750000D01*
X141250000Y-84500000D02*
X143500000Y-84500000D01*
X144750000Y-85750000D02*
X144750000Y-87630000D01*
X141235000Y-84485000D02*
X141250000Y-84500000D01*
X141235000Y-81040000D02*
X141235000Y-84485000D01*
%TO.N,Net-(D3-A)*%
X132750000Y-86750000D02*
X132750000Y-87440000D01*
X130250000Y-84250000D02*
X132750000Y-86750000D01*
X122485000Y-81040000D02*
X125695000Y-84250000D01*
X125695000Y-84250000D02*
X130250000Y-84250000D01*
%TO.N,Net-(D5-A)*%
X177190000Y-85500000D02*
X175250000Y-87440000D01*
X180750000Y-85500000D02*
X177190000Y-85500000D01*
X182000000Y-84250000D02*
X180750000Y-85500000D01*
X187210000Y-81040000D02*
X185710000Y-81040000D01*
X182500000Y-84250000D02*
X182000000Y-84250000D01*
X185710000Y-81040000D02*
X182500000Y-84250000D01*
%TO.N,Net-(D6-A)*%
X176500000Y-84750000D02*
X169500000Y-84750000D01*
X169500000Y-84750000D02*
X169500000Y-85250000D01*
X169500000Y-85250000D02*
X169250000Y-85500000D01*
X177210000Y-84040000D02*
X176500000Y-84750000D01*
X177210000Y-81040000D02*
X177210000Y-84040000D01*
X169250000Y-85500000D02*
X169250000Y-87500000D01*
%TO.N,Net-(D7-A)*%
X156500000Y-85250000D02*
X156500000Y-85750000D01*
X156500000Y-85750000D02*
X156750000Y-86000000D01*
X159000000Y-81185639D02*
X159000000Y-82750000D01*
X159000000Y-82750000D02*
X156500000Y-85250000D01*
X156750000Y-86000000D02*
X156750000Y-87440000D01*
%TO.N,Net-(D8-A)*%
X150000000Y-80935639D02*
X150000000Y-83500000D01*
X150000000Y-83500000D02*
X150750000Y-84250000D01*
X150750000Y-84250000D02*
X150750000Y-87440000D01*
%TO.N,Net-(D9-A)*%
X138250000Y-85250000D02*
X138500000Y-85500000D01*
X138750000Y-86250000D02*
X138750000Y-87690000D01*
X131985000Y-83485000D02*
X133750000Y-85250000D01*
X131985000Y-81040000D02*
X131985000Y-83485000D01*
X133750000Y-85250000D02*
X138250000Y-85250000D01*
X138500000Y-86000000D02*
X138750000Y-86250000D01*
X138500000Y-85500000D02*
X138500000Y-86000000D01*
%TO.N,Net-(D10-A)*%
X114000000Y-85000000D02*
X124000000Y-85000000D01*
X124000000Y-85000000D02*
X124250000Y-85250000D01*
X124810000Y-85250000D02*
X127000000Y-87440000D01*
X112735000Y-83735000D02*
X114000000Y-85000000D01*
X124250000Y-85250000D02*
X124810000Y-85250000D01*
X112735000Y-81290000D02*
X112735000Y-83735000D01*
%TO.N,Net-(J1-Pin_3)*%
X154750000Y-100250000D02*
X151500000Y-100250000D01*
X158000000Y-99000000D02*
X157000000Y-100000000D01*
X149000000Y-102750000D02*
X149000000Y-103750000D01*
X151500000Y-100250000D02*
X149000000Y-102750000D01*
X163250000Y-98750000D02*
X163500000Y-99000000D01*
X163500000Y-99000000D02*
X158000000Y-99000000D01*
X155000000Y-100000000D02*
X154750000Y-100250000D01*
X157000000Y-100000000D02*
X155000000Y-100000000D01*
X163250000Y-95000000D02*
X163250000Y-98750000D01*
%TO.N,Net-(J1-Pin_4)*%
X148500000Y-101250000D02*
X147750000Y-101250000D01*
X156750000Y-97750000D02*
X155500000Y-97750000D01*
X147750000Y-103000000D02*
X147000000Y-103750000D01*
X156750000Y-95060000D02*
X156750000Y-97750000D01*
X151000000Y-98750000D02*
X148500000Y-101250000D01*
X155500000Y-97750000D02*
X154500000Y-98750000D01*
X154500000Y-98750000D02*
X151000000Y-98750000D01*
X147750000Y-101250000D02*
X147750000Y-103000000D01*
%TO.N,Net-(J1-Pin_9)*%
X137000000Y-101250000D02*
X137000000Y-103750000D01*
X134000000Y-101250000D02*
X137000000Y-101250000D01*
X127000000Y-95060000D02*
X127000000Y-97750000D01*
X127000000Y-97750000D02*
X129000000Y-99750000D01*
X129000000Y-99750000D02*
X132500000Y-99750000D01*
X132500000Y-99750000D02*
X134000000Y-101250000D01*
%TO.N,Net-(J1-Pin_2)*%
X157250000Y-100500000D02*
X157000000Y-100750000D01*
X156000000Y-100750000D02*
X155000000Y-101750000D01*
X169250000Y-98500000D02*
X167750000Y-100000000D01*
X169250000Y-95120000D02*
X169250000Y-98500000D01*
X157000000Y-100750000D02*
X156000000Y-100750000D01*
X167750000Y-100000000D02*
X167250000Y-100000000D01*
X155000000Y-101750000D02*
X152000000Y-101750000D01*
X152000000Y-102750000D02*
X151000000Y-103750000D01*
X167250000Y-100000000D02*
X166750000Y-100500000D01*
X152000000Y-101750000D02*
X152000000Y-102750000D01*
X166750000Y-100500000D02*
X157250000Y-100500000D01*
%TO.N,Net-(J1-Pin_5)*%
X146750000Y-100500000D02*
X145750000Y-101500000D01*
X150750000Y-97750000D02*
X149500000Y-99000000D01*
X149500000Y-99000000D02*
X149250000Y-99000000D01*
X145750000Y-103000000D02*
X145000000Y-103750000D01*
X150750000Y-95060000D02*
X150750000Y-97750000D01*
X149250000Y-99000000D02*
X148500000Y-99750000D01*
X146750000Y-99750000D02*
X146750000Y-100500000D01*
X148500000Y-99750000D02*
X146750000Y-99750000D01*
X145750000Y-101500000D02*
X145750000Y-103000000D01*
%TO.N,Net-(J1-Pin_10)*%
X125500000Y-101500000D02*
X129250000Y-101500000D01*
X130250000Y-102500000D02*
X133500000Y-102500000D01*
X134000000Y-102750000D02*
X135000000Y-103750000D01*
X133750000Y-102750000D02*
X134000000Y-102750000D01*
X129250000Y-101500000D02*
X130250000Y-102500000D01*
X121000000Y-97000000D02*
X125500000Y-101500000D01*
X121000000Y-95000000D02*
X121000000Y-97000000D01*
X133500000Y-102500000D02*
X133750000Y-102750000D01*
%TO.N,Net-(J1-Pin_1)*%
X153750000Y-103750000D02*
X153000000Y-103750000D01*
X157500000Y-101750000D02*
X157000000Y-102250000D01*
X168560000Y-101750000D02*
X157500000Y-101750000D01*
X157000000Y-102250000D02*
X155250000Y-102250000D01*
X155250000Y-102250000D02*
X153750000Y-103750000D01*
X175250000Y-95060000D02*
X168560000Y-101750000D01*
%TO.N,Net-(J1-Pin_7)*%
X138750000Y-97250000D02*
X140750000Y-99250000D01*
X140750000Y-100750000D02*
X141000000Y-101000000D01*
X140750000Y-99250000D02*
X140750000Y-100750000D01*
X141000000Y-101000000D02*
X141000000Y-103750000D01*
X138750000Y-95310000D02*
X138750000Y-97250000D01*
%TO.N,Net-(J1-Pin_6)*%
X143250000Y-100000000D02*
X143250000Y-100500000D01*
X143000000Y-100750000D02*
X143000000Y-103750000D01*
X144750000Y-95250000D02*
X144750000Y-98500000D01*
X144750000Y-98500000D02*
X143250000Y-100000000D01*
X143250000Y-100500000D02*
X143000000Y-100750000D01*
%TO.N,Net-(J1-Pin_8)*%
X132750000Y-95060000D02*
X132750000Y-97250000D01*
X138500000Y-99750000D02*
X138750000Y-100000000D01*
X135250000Y-99750000D02*
X138500000Y-99750000D01*
X132750000Y-97250000D02*
X135250000Y-99750000D01*
X138750000Y-100000000D02*
X138750000Y-100500000D01*
X139000000Y-100750000D02*
X139000000Y-103750000D01*
X138750000Y-100500000D02*
X139000000Y-100750000D01*
%TD*%
%TA.AperFunction,NonConductor*%
G36*
X154413347Y-99350501D02*
G01*
X154500901Y-99350501D01*
X154567940Y-99370186D01*
X154613695Y-99422990D01*
X154623639Y-99492148D01*
X154594614Y-99555704D01*
X154588582Y-99562182D01*
X154537583Y-99613181D01*
X154476260Y-99646666D01*
X154449902Y-99649500D01*
X151586669Y-99649500D01*
X151586653Y-99649499D01*
X151579057Y-99649499D01*
X151420943Y-99649499D01*
X151313587Y-99678265D01*
X151268210Y-99690424D01*
X151268207Y-99690425D01*
X151233542Y-99710440D01*
X151165642Y-99726913D01*
X151099615Y-99704060D01*
X151056425Y-99649139D01*
X151049784Y-99579585D01*
X151081800Y-99517483D01*
X151083782Y-99515452D01*
X151212418Y-99386816D01*
X151273739Y-99353334D01*
X151300097Y-99350500D01*
X154413331Y-99350500D01*
X154413347Y-99350501D01*
G37*
%TD.AperFunction*%
%TA.AperFunction,NonConductor*%
G36*
X148317942Y-100370185D02*
G01*
X148363697Y-100422989D01*
X148373641Y-100492147D01*
X148344616Y-100555703D01*
X148338584Y-100562181D01*
X148287584Y-100613181D01*
X148226261Y-100646666D01*
X148199903Y-100649500D01*
X147829057Y-100649500D01*
X147670943Y-100649500D01*
X147518216Y-100690423D01*
X147518214Y-100690423D01*
X147510365Y-100692527D01*
X147509739Y-100690192D01*
X147452457Y-100696338D01*
X147389985Y-100665049D01*
X147354346Y-100604952D01*
X147350501Y-100574313D01*
X147350501Y-100474500D01*
X147370186Y-100407461D01*
X147422990Y-100361706D01*
X147474501Y-100350500D01*
X148250903Y-100350500D01*
X148317942Y-100370185D01*
G37*
%TD.AperFunction*%
%TA.AperFunction,NonConductor*%
G36*
X154663347Y-100850501D02*
G01*
X154750902Y-100850501D01*
X154817941Y-100870186D01*
X154863696Y-100922990D01*
X154873640Y-100992148D01*
X154844615Y-101055704D01*
X154838583Y-101062182D01*
X154787584Y-101113181D01*
X154726261Y-101146666D01*
X154699903Y-101149500D01*
X151920943Y-101149500D01*
X151768216Y-101190423D01*
X151768211Y-101190425D01*
X151733540Y-101210442D01*
X151665640Y-101226913D01*
X151599613Y-101204060D01*
X151556424Y-101149138D01*
X151549783Y-101079585D01*
X151581801Y-101017483D01*
X151583783Y-101015451D01*
X151712418Y-100886816D01*
X151773739Y-100853334D01*
X151800097Y-100850500D01*
X154663331Y-100850500D01*
X154663347Y-100850501D01*
G37*
%TD.AperFunction*%
%TA.AperFunction,NonConductor*%
G36*
X156817942Y-101370185D02*
G01*
X156863697Y-101422989D01*
X156873641Y-101492147D01*
X156844616Y-101555703D01*
X156838584Y-101562181D01*
X156787584Y-101613181D01*
X156726261Y-101646666D01*
X156699903Y-101649500D01*
X156249098Y-101649500D01*
X156182059Y-101629815D01*
X156136304Y-101577011D01*
X156126360Y-101507853D01*
X156155385Y-101444297D01*
X156161417Y-101437819D01*
X156212417Y-101386819D01*
X156273740Y-101353334D01*
X156300098Y-101350500D01*
X156750903Y-101350500D01*
X156817942Y-101370185D01*
G37*
%TD.AperFunction*%
%TA.AperFunction,NonConductor*%
G36*
X148900378Y-101795939D02*
G01*
X148943570Y-101850860D01*
X148950213Y-101920413D01*
X148918198Y-101982516D01*
X148916134Y-101984629D01*
X148631286Y-102269478D01*
X148562181Y-102338583D01*
X148500858Y-102372068D01*
X148431166Y-102367084D01*
X148375233Y-102325212D01*
X148350816Y-102259748D01*
X148350500Y-102250902D01*
X148350500Y-101974501D01*
X148370185Y-101907462D01*
X148422989Y-101861707D01*
X148474500Y-101850501D01*
X148579054Y-101850501D01*
X148579057Y-101850501D01*
X148731785Y-101809577D01*
X148766452Y-101789561D01*
X148834351Y-101773088D01*
X148900378Y-101795939D01*
G37*
%TD.AperFunction*%
%TA.AperFunction,NonConductor*%
G36*
X147068834Y-101132915D02*
G01*
X147124767Y-101174787D01*
X147149184Y-101240251D01*
X147149500Y-101249097D01*
X147149500Y-102450500D01*
X147129815Y-102517539D01*
X147077011Y-102563294D01*
X147025500Y-102574500D01*
X146891074Y-102574500D01*
X146676931Y-102614530D01*
X146676928Y-102614530D01*
X146676928Y-102614531D01*
X146519293Y-102675599D01*
X146449670Y-102681461D01*
X146387930Y-102648751D01*
X146353675Y-102587854D01*
X146350500Y-102559972D01*
X146350500Y-101800097D01*
X146370185Y-101733058D01*
X146386819Y-101712416D01*
X146765374Y-101333861D01*
X146937820Y-101161415D01*
X146999142Y-101127931D01*
X147068834Y-101132915D01*
G37*
%TD.AperFunction*%
%TA.AperFunction,NonConductor*%
G36*
X151396388Y-101305360D02*
G01*
X151452321Y-101347232D01*
X151476738Y-101412696D01*
X151461886Y-101480969D01*
X151460442Y-101483540D01*
X151440425Y-101518211D01*
X151440423Y-101518216D01*
X151399500Y-101670943D01*
X151399500Y-102449900D01*
X151379815Y-102516939D01*
X151363179Y-102537583D01*
X151338249Y-102562512D01*
X151276926Y-102595996D01*
X151227786Y-102596718D01*
X151190166Y-102589686D01*
X151108926Y-102574500D01*
X150891074Y-102574500D01*
X150676931Y-102614530D01*
X150633891Y-102631204D01*
X150473792Y-102693226D01*
X150473786Y-102693229D01*
X150288576Y-102807906D01*
X150288566Y-102807913D01*
X150127573Y-102954676D01*
X150098953Y-102992576D01*
X150042844Y-103034211D01*
X149973132Y-103038902D01*
X149911950Y-103005159D01*
X149901047Y-102992576D01*
X149883864Y-102969823D01*
X149872427Y-102954678D01*
X149849193Y-102933498D01*
X149812914Y-102873789D01*
X149814674Y-102803941D01*
X149845050Y-102754183D01*
X151265374Y-101333860D01*
X151326696Y-101300376D01*
X151396388Y-101305360D01*
G37*
%TD.AperFunction*%
%TA.AperFunction,NonConductor*%
G36*
X136342539Y-101870185D02*
G01*
X136388294Y-101922989D01*
X136399500Y-101974500D01*
X136399500Y-102670158D01*
X136379815Y-102737197D01*
X136340778Y-102775585D01*
X136288566Y-102807913D01*
X136127573Y-102954676D01*
X136098953Y-102992576D01*
X136042844Y-103034211D01*
X135973132Y-103038902D01*
X135911950Y-103005159D01*
X135901047Y-102992576D01*
X135872426Y-102954676D01*
X135711433Y-102807913D01*
X135711423Y-102807906D01*
X135526213Y-102693229D01*
X135526207Y-102693226D01*
X135441113Y-102660260D01*
X135323069Y-102614530D01*
X135108926Y-102574500D01*
X134891074Y-102574500D01*
X134891073Y-102574500D01*
X134772210Y-102596718D01*
X134702695Y-102589686D01*
X134661746Y-102562510D01*
X134487590Y-102388355D01*
X134487588Y-102388352D01*
X134368716Y-102269480D01*
X134368714Y-102269479D01*
X134368712Y-102269478D01*
X134281904Y-102219360D01*
X134281904Y-102219359D01*
X134281900Y-102219358D01*
X134231785Y-102190423D01*
X134079057Y-102149499D01*
X134079054Y-102149499D01*
X134050097Y-102149499D01*
X133983058Y-102129814D01*
X133962416Y-102113180D01*
X133911417Y-102062181D01*
X133877932Y-102000858D01*
X133882916Y-101931166D01*
X133924788Y-101875233D01*
X133990252Y-101850816D01*
X133999098Y-101850500D01*
X136275500Y-101850500D01*
X136342539Y-101870185D01*
G37*
%TD.AperFunction*%
%TA.AperFunction,NonConductor*%
G36*
X193192539Y-75520185D02*
G01*
X193238294Y-75572989D01*
X193249500Y-75624500D01*
X193249500Y-104625500D01*
X193229815Y-104692539D01*
X193177011Y-104738294D01*
X193125500Y-104749500D01*
X154266742Y-104749500D01*
X154199703Y-104729815D01*
X154153948Y-104677011D01*
X154144004Y-104607853D01*
X154150560Y-104582166D01*
X154154983Y-104570309D01*
X154169091Y-104532483D01*
X154175500Y-104472873D01*
X154175499Y-104225097D01*
X154195183Y-104158059D01*
X154211818Y-104137417D01*
X154230520Y-104118716D01*
X154230520Y-104118715D01*
X154240722Y-104108514D01*
X154240729Y-104108504D01*
X155462416Y-102886819D01*
X155523739Y-102853334D01*
X155550097Y-102850500D01*
X156913331Y-102850500D01*
X156913347Y-102850501D01*
X156920943Y-102850501D01*
X157079054Y-102850501D01*
X157079057Y-102850501D01*
X157231785Y-102809577D01*
X157281904Y-102780639D01*
X157368716Y-102730520D01*
X157480520Y-102618716D01*
X157480521Y-102618714D01*
X157712418Y-102386816D01*
X157773740Y-102353334D01*
X157800098Y-102350500D01*
X168473331Y-102350500D01*
X168473347Y-102350501D01*
X168480943Y-102350501D01*
X168639054Y-102350501D01*
X168639057Y-102350501D01*
X168791785Y-102309577D01*
X168861233Y-102269481D01*
X168928716Y-102230520D01*
X169040520Y-102118716D01*
X169040520Y-102118714D01*
X169050724Y-102108511D01*
X169050727Y-102108506D01*
X170056882Y-101102351D01*
X173699500Y-101102351D01*
X173731522Y-101304534D01*
X173794781Y-101499223D01*
X173887715Y-101681613D01*
X174008028Y-101847213D01*
X174152786Y-101991971D01*
X174245840Y-102059577D01*
X174318390Y-102112287D01*
X174391423Y-102149499D01*
X174500776Y-102205218D01*
X174500778Y-102205218D01*
X174500781Y-102205220D01*
X174605137Y-102239127D01*
X174695465Y-102268477D01*
X174796557Y-102284488D01*
X174897648Y-102300500D01*
X174897649Y-102300500D01*
X175102351Y-102300500D01*
X175102352Y-102300500D01*
X175304534Y-102268477D01*
X175499219Y-102205220D01*
X175681610Y-102112287D01*
X175809349Y-102019480D01*
X175847213Y-101991971D01*
X175847215Y-101991968D01*
X175847219Y-101991966D01*
X175991966Y-101847219D01*
X175991968Y-101847215D01*
X175991971Y-101847213D01*
X176045825Y-101773088D01*
X176112287Y-101681610D01*
X176205220Y-101499219D01*
X176268477Y-101304534D01*
X176300500Y-101102352D01*
X176300500Y-100897648D01*
X176274230Y-100731790D01*
X176268477Y-100695465D01*
X176224324Y-100559577D01*
X176205220Y-100500781D01*
X176205218Y-100500778D01*
X176205218Y-100500776D01*
X176144334Y-100381286D01*
X176112287Y-100318390D01*
X176076751Y-100269478D01*
X175991971Y-100152786D01*
X175847213Y-100008028D01*
X175681613Y-99887715D01*
X175681612Y-99887714D01*
X175681610Y-99887713D01*
X175624653Y-99858691D01*
X175499223Y-99794781D01*
X175304534Y-99731522D01*
X175129995Y-99703878D01*
X175102352Y-99699500D01*
X174897648Y-99699500D01*
X174873329Y-99703351D01*
X174695465Y-99731522D01*
X174500776Y-99794781D01*
X174318386Y-99887715D01*
X174152786Y-100008028D01*
X174008028Y-100152786D01*
X173887715Y-100318386D01*
X173794781Y-100500776D01*
X173731522Y-100695465D01*
X173699500Y-100897648D01*
X173699500Y-101102351D01*
X170056882Y-101102351D01*
X174807295Y-96351939D01*
X174868616Y-96318456D01*
X174927067Y-96319846D01*
X175023308Y-96345635D01*
X175185230Y-96359801D01*
X175249998Y-96365468D01*
X175250000Y-96365468D01*
X175250002Y-96365468D01*
X175306673Y-96360509D01*
X175476692Y-96345635D01*
X175696496Y-96286739D01*
X175902734Y-96190568D01*
X176089139Y-96060047D01*
X176250047Y-95899139D01*
X176380568Y-95712734D01*
X176476739Y-95506496D01*
X176535635Y-95286692D01*
X176555468Y-95060000D01*
X176550218Y-94999998D01*
X176549801Y-94995230D01*
X176535635Y-94833308D01*
X176476739Y-94613504D01*
X176380568Y-94407266D01*
X176250047Y-94220861D01*
X176250045Y-94220858D01*
X176089141Y-94059954D01*
X175902734Y-93929432D01*
X175902732Y-93929431D01*
X175696497Y-93833261D01*
X175696488Y-93833258D01*
X175476697Y-93774366D01*
X175476693Y-93774365D01*
X175476692Y-93774365D01*
X175476691Y-93774364D01*
X175476686Y-93774364D01*
X175250002Y-93754532D01*
X175249998Y-93754532D01*
X175023313Y-93774364D01*
X175023302Y-93774366D01*
X174803511Y-93833258D01*
X174803502Y-93833261D01*
X174597267Y-93929431D01*
X174597265Y-93929432D01*
X174410858Y-94059954D01*
X174249954Y-94220858D01*
X174119432Y-94407265D01*
X174119431Y-94407267D01*
X174023261Y-94613502D01*
X174023258Y-94613511D01*
X173964366Y-94833302D01*
X173964364Y-94833313D01*
X173944532Y-95059998D01*
X173944532Y-95060001D01*
X173964364Y-95286686D01*
X173964365Y-95286694D01*
X173990152Y-95382929D01*
X173988489Y-95452779D01*
X173958058Y-95502704D01*
X168347584Y-101113181D01*
X168286261Y-101146666D01*
X168259903Y-101149500D01*
X167249098Y-101149500D01*
X167182059Y-101129815D01*
X167136304Y-101077011D01*
X167126360Y-101007853D01*
X167155385Y-100944297D01*
X167161417Y-100937819D01*
X167178293Y-100920943D01*
X167230520Y-100868716D01*
X167230521Y-100868714D01*
X167462418Y-100636816D01*
X167523740Y-100603334D01*
X167550098Y-100600500D01*
X167663331Y-100600500D01*
X167663347Y-100600501D01*
X167670943Y-100600501D01*
X167829054Y-100600501D01*
X167829057Y-100600501D01*
X167981785Y-100559577D01*
X168031904Y-100530639D01*
X168118716Y-100480520D01*
X168230520Y-100368716D01*
X168230520Y-100368714D01*
X168240728Y-100358507D01*
X168240730Y-100358504D01*
X169608506Y-98990728D01*
X169608511Y-98990724D01*
X169618714Y-98980520D01*
X169618716Y-98980520D01*
X169730520Y-98868716D01*
X169809577Y-98731784D01*
X169850500Y-98579057D01*
X169850500Y-96351692D01*
X169870185Y-96284653D01*
X169903374Y-96250119D01*
X170089139Y-96120047D01*
X170250047Y-95959139D01*
X170380568Y-95772734D01*
X170476739Y-95566496D01*
X170535635Y-95346692D01*
X170555468Y-95120000D01*
X170550218Y-95059998D01*
X170547009Y-95023313D01*
X170535635Y-94893308D01*
X170476739Y-94673504D01*
X170380568Y-94467266D01*
X170250047Y-94280861D01*
X170250045Y-94280858D01*
X170089141Y-94119954D01*
X169902734Y-93989432D01*
X169902732Y-93989431D01*
X169696497Y-93893261D01*
X169696488Y-93893258D01*
X169476697Y-93834366D01*
X169476693Y-93834365D01*
X169476692Y-93834365D01*
X169476691Y-93834364D01*
X169476686Y-93834364D01*
X169250002Y-93814532D01*
X169249998Y-93814532D01*
X169023313Y-93834364D01*
X169023302Y-93834366D01*
X168803511Y-93893258D01*
X168803502Y-93893261D01*
X168597267Y-93989431D01*
X168597265Y-93989432D01*
X168410858Y-94119954D01*
X168249954Y-94280858D01*
X168119432Y-94467265D01*
X168119431Y-94467267D01*
X168023261Y-94673502D01*
X168023258Y-94673511D01*
X167964366Y-94893302D01*
X167964364Y-94893313D01*
X167944532Y-95119998D01*
X167944532Y-95120001D01*
X167964364Y-95346686D01*
X167964366Y-95346697D01*
X168023258Y-95566488D01*
X168023261Y-95566497D01*
X168119431Y-95772732D01*
X168119432Y-95772734D01*
X168249954Y-95959141D01*
X168410858Y-96120045D01*
X168410861Y-96120047D01*
X168596624Y-96250118D01*
X168640248Y-96304693D01*
X168649500Y-96351692D01*
X168649500Y-98199903D01*
X168629815Y-98266942D01*
X168613181Y-98287584D01*
X167537584Y-99363181D01*
X167476261Y-99396666D01*
X167449903Y-99399500D01*
X167336670Y-99399500D01*
X167336654Y-99399499D01*
X167329058Y-99399499D01*
X167170943Y-99399499D01*
X167094579Y-99419961D01*
X167018214Y-99440423D01*
X167018209Y-99440426D01*
X166881290Y-99519475D01*
X166881282Y-99519481D01*
X166537584Y-99863181D01*
X166476261Y-99896666D01*
X166449903Y-99899500D01*
X158249098Y-99899500D01*
X158182059Y-99879815D01*
X158136304Y-99827011D01*
X158126360Y-99757853D01*
X158155385Y-99694297D01*
X158161417Y-99687819D01*
X158212417Y-99636819D01*
X158273740Y-99603334D01*
X158300098Y-99600500D01*
X163579055Y-99600500D01*
X163579057Y-99600500D01*
X163731784Y-99559577D01*
X163868716Y-99480520D01*
X163980520Y-99368716D01*
X164059577Y-99231784D01*
X164100500Y-99079057D01*
X164100500Y-98920943D01*
X164059577Y-98768216D01*
X164038543Y-98731783D01*
X163980524Y-98631290D01*
X163980521Y-98631286D01*
X163980520Y-98631284D01*
X163886818Y-98537582D01*
X163853334Y-98476258D01*
X163850500Y-98449901D01*
X163850500Y-96231692D01*
X163870185Y-96164653D01*
X163903374Y-96130119D01*
X164089139Y-96000047D01*
X164250047Y-95839139D01*
X164380568Y-95652734D01*
X164476739Y-95446496D01*
X164535635Y-95226692D01*
X164555468Y-95000000D01*
X164535635Y-94773308D01*
X164476739Y-94553504D01*
X164380568Y-94347266D01*
X164250047Y-94160861D01*
X164250045Y-94160858D01*
X164089141Y-93999954D01*
X163902734Y-93869432D01*
X163902732Y-93869431D01*
X163696497Y-93773261D01*
X163696488Y-93773258D01*
X163476697Y-93714366D01*
X163476693Y-93714365D01*
X163476692Y-93714365D01*
X163476691Y-93714364D01*
X163476686Y-93714364D01*
X163250002Y-93694532D01*
X163249998Y-93694532D01*
X163023313Y-93714364D01*
X163023302Y-93714366D01*
X162803511Y-93773258D01*
X162803502Y-93773261D01*
X162597267Y-93869431D01*
X162597265Y-93869432D01*
X162410858Y-93999954D01*
X162249954Y-94160858D01*
X162119432Y-94347265D01*
X162119431Y-94347267D01*
X162023261Y-94553502D01*
X162023258Y-94553511D01*
X161964366Y-94773302D01*
X161964364Y-94773313D01*
X161944532Y-94999998D01*
X161944532Y-95000001D01*
X161964364Y-95226686D01*
X161964366Y-95226697D01*
X162023258Y-95446488D01*
X162023261Y-95446497D01*
X162119431Y-95652732D01*
X162119432Y-95652734D01*
X162249954Y-95839141D01*
X162410858Y-96000045D01*
X162410861Y-96000047D01*
X162596624Y-96130118D01*
X162640248Y-96184693D01*
X162649500Y-96231692D01*
X162649500Y-98275500D01*
X162629815Y-98342539D01*
X162577011Y-98388294D01*
X162525500Y-98399500D01*
X158086670Y-98399500D01*
X158086654Y-98399499D01*
X158079058Y-98399499D01*
X157920943Y-98399499D01*
X157844579Y-98419961D01*
X157768214Y-98440423D01*
X157768209Y-98440426D01*
X157631290Y-98519475D01*
X157631282Y-98519481D01*
X156787584Y-99363181D01*
X156726261Y-99396666D01*
X156699903Y-99399500D01*
X154999098Y-99399500D01*
X154932059Y-99379815D01*
X154886304Y-99327011D01*
X154876360Y-99257853D01*
X154905385Y-99194297D01*
X154911417Y-99187819D01*
X154949737Y-99149499D01*
X154980520Y-99118716D01*
X154980520Y-99118714D01*
X154990724Y-99108511D01*
X154990727Y-99108506D01*
X155712417Y-98386819D01*
X155773740Y-98353334D01*
X155800098Y-98350500D01*
X156829055Y-98350500D01*
X156829057Y-98350500D01*
X156981784Y-98309577D01*
X157118716Y-98230520D01*
X157230520Y-98118716D01*
X157309577Y-97981784D01*
X157350500Y-97829057D01*
X157350500Y-96291692D01*
X157370185Y-96224653D01*
X157403374Y-96190119D01*
X157589139Y-96060047D01*
X157750047Y-95899139D01*
X157880568Y-95712734D01*
X157976739Y-95506496D01*
X158035635Y-95286692D01*
X158055468Y-95060000D01*
X158050218Y-94999998D01*
X158049801Y-94995230D01*
X158035635Y-94833308D01*
X157976739Y-94613504D01*
X157880568Y-94407266D01*
X157750047Y-94220861D01*
X157750045Y-94220858D01*
X157589141Y-94059954D01*
X157402734Y-93929432D01*
X157402732Y-93929431D01*
X157196497Y-93833261D01*
X157196488Y-93833258D01*
X156976697Y-93774366D01*
X156976693Y-93774365D01*
X156976692Y-93774365D01*
X156976691Y-93774364D01*
X156976686Y-93774364D01*
X156750002Y-93754532D01*
X156749998Y-93754532D01*
X156523313Y-93774364D01*
X156523302Y-93774366D01*
X156303511Y-93833258D01*
X156303502Y-93833261D01*
X156097267Y-93929431D01*
X156097265Y-93929432D01*
X155910858Y-94059954D01*
X155749954Y-94220858D01*
X155619432Y-94407265D01*
X155619431Y-94407267D01*
X155523261Y-94613502D01*
X155523258Y-94613511D01*
X155464366Y-94833302D01*
X155464364Y-94833313D01*
X155444532Y-95059998D01*
X155444532Y-95060001D01*
X155464364Y-95286686D01*
X155464366Y-95286697D01*
X155523258Y-95506488D01*
X155523261Y-95506497D01*
X155619431Y-95712732D01*
X155619432Y-95712734D01*
X155749954Y-95899141D01*
X155910858Y-96060045D01*
X155910861Y-96060047D01*
X156096624Y-96190118D01*
X156140248Y-96244693D01*
X156149500Y-96291692D01*
X156149500Y-97025500D01*
X156129815Y-97092539D01*
X156077011Y-97138294D01*
X156025500Y-97149500D01*
X155586670Y-97149500D01*
X155586654Y-97149499D01*
X155579058Y-97149499D01*
X155420943Y-97149499D01*
X155344579Y-97169961D01*
X155268214Y-97190423D01*
X155268209Y-97190426D01*
X155131290Y-97269475D01*
X155131284Y-97269480D01*
X154287584Y-98113181D01*
X154226261Y-98146666D01*
X154199903Y-98149500D01*
X151425686Y-98149500D01*
X151358647Y-98129815D01*
X151312892Y-98077011D01*
X151302948Y-98007853D01*
X151307913Y-97989753D01*
X151307473Y-97989635D01*
X151309575Y-97981786D01*
X151309577Y-97981785D01*
X151350501Y-97829057D01*
X151350501Y-97670943D01*
X151350501Y-97663348D01*
X151350500Y-97663330D01*
X151350500Y-96291692D01*
X151370185Y-96224653D01*
X151403374Y-96190119D01*
X151589139Y-96060047D01*
X151750047Y-95899139D01*
X151880568Y-95712734D01*
X151976739Y-95506496D01*
X152035635Y-95286692D01*
X152055468Y-95060000D01*
X152050218Y-94999998D01*
X152049801Y-94995230D01*
X152035635Y-94833308D01*
X151976739Y-94613504D01*
X151880568Y-94407266D01*
X151750047Y-94220861D01*
X151750045Y-94220858D01*
X151589141Y-94059954D01*
X151402734Y-93929432D01*
X151402732Y-93929431D01*
X151196497Y-93833261D01*
X151196488Y-93833258D01*
X150976697Y-93774366D01*
X150976693Y-93774365D01*
X150976692Y-93774365D01*
X150976691Y-93774364D01*
X150976686Y-93774364D01*
X150750002Y-93754532D01*
X150749998Y-93754532D01*
X150523313Y-93774364D01*
X150523302Y-93774366D01*
X150303511Y-93833258D01*
X150303502Y-93833261D01*
X150097267Y-93929431D01*
X150097265Y-93929432D01*
X149910858Y-94059954D01*
X149749954Y-94220858D01*
X149619432Y-94407265D01*
X149619431Y-94407267D01*
X149523261Y-94613502D01*
X149523258Y-94613511D01*
X149464366Y-94833302D01*
X149464364Y-94833313D01*
X149444532Y-95059998D01*
X149444532Y-95060001D01*
X149464364Y-95286686D01*
X149464366Y-95286697D01*
X149523258Y-95506488D01*
X149523261Y-95506497D01*
X149619431Y-95712732D01*
X149619432Y-95712734D01*
X149749954Y-95899141D01*
X149910858Y-96060045D01*
X149910861Y-96060047D01*
X150096624Y-96190118D01*
X150140248Y-96244693D01*
X150149500Y-96291692D01*
X150149500Y-97449903D01*
X150129815Y-97516942D01*
X150113181Y-97537584D01*
X149287584Y-98363181D01*
X149226261Y-98396666D01*
X149199903Y-98399500D01*
X149170943Y-98399500D01*
X149018215Y-98440423D01*
X149018214Y-98440423D01*
X149018212Y-98440424D01*
X149018209Y-98440425D01*
X148968096Y-98469359D01*
X148968095Y-98469360D01*
X148924689Y-98494420D01*
X148881285Y-98519479D01*
X148881282Y-98519481D01*
X148821709Y-98579055D01*
X148769480Y-98631284D01*
X148769478Y-98631286D01*
X148519480Y-98881285D01*
X148287584Y-99113181D01*
X148226261Y-99146666D01*
X148199903Y-99149500D01*
X146670943Y-99149500D01*
X146518216Y-99190423D01*
X146518209Y-99190426D01*
X146381290Y-99269475D01*
X146381282Y-99269481D01*
X146269481Y-99381282D01*
X146269475Y-99381290D01*
X146190426Y-99518209D01*
X146190423Y-99518216D01*
X146149500Y-99670943D01*
X146149500Y-100199902D01*
X146129815Y-100266941D01*
X146113181Y-100287583D01*
X145269481Y-101131282D01*
X145269479Y-101131285D01*
X145258963Y-101149500D01*
X145222639Y-101212417D01*
X145219361Y-101218094D01*
X145219359Y-101218096D01*
X145190425Y-101268209D01*
X145190424Y-101268210D01*
X145181880Y-101300098D01*
X145149499Y-101420943D01*
X145149499Y-101420945D01*
X145149499Y-101589046D01*
X145149500Y-101589059D01*
X145149500Y-102450500D01*
X145129815Y-102517539D01*
X145077011Y-102563294D01*
X145025500Y-102574500D01*
X144891074Y-102574500D01*
X144676931Y-102614530D01*
X144633891Y-102631204D01*
X144473792Y-102693226D01*
X144473786Y-102693229D01*
X144288576Y-102807906D01*
X144288566Y-102807913D01*
X144127573Y-102954676D01*
X144098953Y-102992576D01*
X144042844Y-103034211D01*
X143973132Y-103038902D01*
X143911950Y-103005159D01*
X143901047Y-102992576D01*
X143872426Y-102954676D01*
X143711433Y-102807913D01*
X143711432Y-102807912D01*
X143659222Y-102775585D01*
X143612587Y-102723557D01*
X143600500Y-102670158D01*
X143600500Y-101050098D01*
X143620185Y-100983059D01*
X143636819Y-100962417D01*
X143678293Y-100920943D01*
X143730520Y-100868716D01*
X143809577Y-100731784D01*
X143844754Y-100600501D01*
X143850500Y-100579058D01*
X143850500Y-100420943D01*
X143850500Y-100420942D01*
X143850500Y-100300096D01*
X143870185Y-100233057D01*
X143886814Y-100212420D01*
X145108506Y-98990727D01*
X145108511Y-98990724D01*
X145118714Y-98980520D01*
X145118716Y-98980520D01*
X145230520Y-98868716D01*
X145309577Y-98731784D01*
X145350500Y-98579057D01*
X145350500Y-96481692D01*
X145370185Y-96414653D01*
X145403374Y-96380119D01*
X145589139Y-96250047D01*
X145750047Y-96089139D01*
X145880568Y-95902734D01*
X145976739Y-95696496D01*
X146035635Y-95476692D01*
X146055468Y-95250000D01*
X146035635Y-95023308D01*
X145976739Y-94803504D01*
X145880568Y-94597266D01*
X145750047Y-94410861D01*
X145750045Y-94410858D01*
X145589141Y-94249954D01*
X145402734Y-94119432D01*
X145402732Y-94119431D01*
X145196497Y-94023261D01*
X145196488Y-94023258D01*
X144976697Y-93964366D01*
X144976693Y-93964365D01*
X144976692Y-93964365D01*
X144976691Y-93964364D01*
X144976686Y-93964364D01*
X144750002Y-93944532D01*
X144749998Y-93944532D01*
X144523313Y-93964364D01*
X144523302Y-93964366D01*
X144303511Y-94023258D01*
X144303502Y-94023261D01*
X144097267Y-94119431D01*
X144097265Y-94119432D01*
X143910858Y-94249954D01*
X143749954Y-94410858D01*
X143619432Y-94597265D01*
X143619431Y-94597267D01*
X143523261Y-94803502D01*
X143523258Y-94803511D01*
X143464366Y-95023302D01*
X143464364Y-95023313D01*
X143444532Y-95249998D01*
X143444532Y-95250001D01*
X143464364Y-95476686D01*
X143464366Y-95476697D01*
X143523258Y-95696488D01*
X143523261Y-95696497D01*
X143619431Y-95902732D01*
X143619432Y-95902734D01*
X143749954Y-96089141D01*
X143910858Y-96250045D01*
X143910861Y-96250047D01*
X144096624Y-96380118D01*
X144140248Y-96434693D01*
X144149500Y-96481692D01*
X144149500Y-98199902D01*
X144129815Y-98266941D01*
X144113181Y-98287583D01*
X142769481Y-99631282D01*
X142769479Y-99631284D01*
X142758963Y-99649500D01*
X142730096Y-99699500D01*
X142690423Y-99768215D01*
X142649499Y-99920943D01*
X142649499Y-99920945D01*
X142649499Y-100089046D01*
X142649500Y-100089059D01*
X142649500Y-100199902D01*
X142629815Y-100266941D01*
X142613181Y-100287583D01*
X142519481Y-100381282D01*
X142519479Y-100381285D01*
X142469361Y-100468094D01*
X142469359Y-100468096D01*
X142440425Y-100518209D01*
X142440424Y-100518210D01*
X142430378Y-100555703D01*
X142399499Y-100670943D01*
X142399499Y-100670945D01*
X142399499Y-100839046D01*
X142399500Y-100839059D01*
X142399500Y-102670158D01*
X142379815Y-102737197D01*
X142340778Y-102775585D01*
X142288566Y-102807913D01*
X142127573Y-102954676D01*
X142098953Y-102992576D01*
X142042844Y-103034211D01*
X141973132Y-103038902D01*
X141911950Y-103005159D01*
X141901047Y-102992576D01*
X141872426Y-102954676D01*
X141711433Y-102807913D01*
X141711432Y-102807912D01*
X141659222Y-102775585D01*
X141612587Y-102723557D01*
X141600500Y-102670158D01*
X141600500Y-100920943D01*
X141594754Y-100899500D01*
X141575879Y-100829057D01*
X141559577Y-100768216D01*
X141559575Y-100768212D01*
X141559574Y-100768209D01*
X141480524Y-100631290D01*
X141480521Y-100631286D01*
X141480520Y-100631284D01*
X141386818Y-100537582D01*
X141353334Y-100476258D01*
X141350500Y-100449901D01*
X141350500Y-99170945D01*
X141350500Y-99170943D01*
X141309577Y-99018216D01*
X141309577Y-99018215D01*
X141309577Y-99018214D01*
X141280639Y-98968095D01*
X141280637Y-98968092D01*
X141230520Y-98881284D01*
X141118716Y-98769480D01*
X141118715Y-98769479D01*
X141114385Y-98765149D01*
X141114374Y-98765139D01*
X139386819Y-97037584D01*
X139353334Y-96976261D01*
X139350500Y-96949903D01*
X139350500Y-96541692D01*
X139370185Y-96474653D01*
X139403374Y-96440119D01*
X139589139Y-96310047D01*
X139750047Y-96149139D01*
X139880568Y-95962734D01*
X139976739Y-95756496D01*
X140035635Y-95536692D01*
X140055468Y-95310000D01*
X140050218Y-95249998D01*
X140035635Y-95083313D01*
X140035635Y-95083308D01*
X139976739Y-94863504D01*
X139880568Y-94657266D01*
X139750047Y-94470861D01*
X139750045Y-94470858D01*
X139589141Y-94309954D01*
X139402734Y-94179432D01*
X139402732Y-94179431D01*
X139196497Y-94083261D01*
X139196488Y-94083258D01*
X138976697Y-94024366D01*
X138976693Y-94024365D01*
X138976692Y-94024365D01*
X138976691Y-94024364D01*
X138976686Y-94024364D01*
X138750002Y-94004532D01*
X138749998Y-94004532D01*
X138523313Y-94024364D01*
X138523302Y-94024366D01*
X138303511Y-94083258D01*
X138303502Y-94083261D01*
X138097267Y-94179431D01*
X138097265Y-94179432D01*
X137910858Y-94309954D01*
X137749954Y-94470858D01*
X137619432Y-94657265D01*
X137619431Y-94657267D01*
X137523261Y-94863502D01*
X137523258Y-94863511D01*
X137464366Y-95083302D01*
X137464364Y-95083313D01*
X137444532Y-95309998D01*
X137444532Y-95310001D01*
X137464364Y-95536686D01*
X137464366Y-95536697D01*
X137523258Y-95756488D01*
X137523261Y-95756497D01*
X137619431Y-95962732D01*
X137619432Y-95962734D01*
X137749954Y-96149141D01*
X137910858Y-96310045D01*
X137910861Y-96310047D01*
X138096624Y-96440118D01*
X138140248Y-96494693D01*
X138149500Y-96541692D01*
X138149500Y-97163330D01*
X138149499Y-97163348D01*
X138149499Y-97329054D01*
X138149498Y-97329054D01*
X138190424Y-97481789D01*
X138190425Y-97481790D01*
X138211455Y-97518214D01*
X138211456Y-97518216D01*
X138269475Y-97618709D01*
X138269481Y-97618717D01*
X138388349Y-97737585D01*
X138388355Y-97737590D01*
X140113181Y-99462416D01*
X140146666Y-99523739D01*
X140149500Y-99550097D01*
X140149500Y-100663330D01*
X140149499Y-100663348D01*
X140149499Y-100829054D01*
X140149498Y-100829054D01*
X140190424Y-100981789D01*
X140190425Y-100981790D01*
X140212186Y-101019480D01*
X140212187Y-101019482D01*
X140269475Y-101118709D01*
X140269481Y-101118717D01*
X140363181Y-101212417D01*
X140396666Y-101273740D01*
X140399500Y-101300098D01*
X140399500Y-102670158D01*
X140379815Y-102737197D01*
X140340778Y-102775585D01*
X140288566Y-102807913D01*
X140127573Y-102954676D01*
X140098953Y-102992576D01*
X140042844Y-103034211D01*
X139973132Y-103038902D01*
X139911950Y-103005159D01*
X139901047Y-102992576D01*
X139872426Y-102954676D01*
X139711433Y-102807913D01*
X139711432Y-102807912D01*
X139659222Y-102775585D01*
X139612587Y-102723557D01*
X139600500Y-102670158D01*
X139600500Y-100670943D01*
X139600499Y-100670939D01*
X139594754Y-100649500D01*
X139581625Y-100600500D01*
X139559577Y-100518216D01*
X139559573Y-100518209D01*
X139480524Y-100381290D01*
X139480521Y-100381286D01*
X139480520Y-100381284D01*
X139386818Y-100287582D01*
X139353334Y-100226258D01*
X139350500Y-100199901D01*
X139350500Y-99920943D01*
X139344754Y-99899500D01*
X139325879Y-99829057D01*
X139309577Y-99768216D01*
X139309575Y-99768212D01*
X139309574Y-99768209D01*
X139230524Y-99631290D01*
X139230521Y-99631286D01*
X139230520Y-99631284D01*
X139118716Y-99519480D01*
X139118715Y-99519479D01*
X139114385Y-99515149D01*
X139114374Y-99515139D01*
X138987590Y-99388355D01*
X138987588Y-99388352D01*
X138868717Y-99269481D01*
X138868716Y-99269480D01*
X138781904Y-99219360D01*
X138781904Y-99219359D01*
X138781900Y-99219358D01*
X138731785Y-99190423D01*
X138579057Y-99149499D01*
X138420943Y-99149499D01*
X138413347Y-99149499D01*
X138413331Y-99149500D01*
X135550097Y-99149500D01*
X135483058Y-99129815D01*
X135462416Y-99113181D01*
X133386819Y-97037584D01*
X133353334Y-96976261D01*
X133350500Y-96949903D01*
X133350500Y-96291692D01*
X133370185Y-96224653D01*
X133403374Y-96190119D01*
X133589139Y-96060047D01*
X133750047Y-95899139D01*
X133880568Y-95712734D01*
X133976739Y-95506496D01*
X134035635Y-95286692D01*
X134055468Y-95060000D01*
X134050218Y-94999998D01*
X134049801Y-94995230D01*
X134035635Y-94833308D01*
X133976739Y-94613504D01*
X133880568Y-94407266D01*
X133750047Y-94220861D01*
X133750045Y-94220858D01*
X133589141Y-94059954D01*
X133402734Y-93929432D01*
X133402732Y-93929431D01*
X133196497Y-93833261D01*
X133196488Y-93833258D01*
X132976697Y-93774366D01*
X132976693Y-93774365D01*
X132976692Y-93774365D01*
X132976691Y-93774364D01*
X132976686Y-93774364D01*
X132750002Y-93754532D01*
X132749998Y-93754532D01*
X132523313Y-93774364D01*
X132523302Y-93774366D01*
X132303511Y-93833258D01*
X132303502Y-93833261D01*
X132097267Y-93929431D01*
X132097265Y-93929432D01*
X131910858Y-94059954D01*
X131749954Y-94220858D01*
X131619432Y-94407265D01*
X131619431Y-94407267D01*
X131523261Y-94613502D01*
X131523258Y-94613511D01*
X131464366Y-94833302D01*
X131464364Y-94833313D01*
X131444532Y-95059998D01*
X131444532Y-95060001D01*
X131464364Y-95286686D01*
X131464366Y-95286697D01*
X131523258Y-95506488D01*
X131523261Y-95506497D01*
X131619431Y-95712732D01*
X131619432Y-95712734D01*
X131749954Y-95899141D01*
X131910858Y-96060045D01*
X131910861Y-96060047D01*
X132096624Y-96190118D01*
X132140248Y-96244693D01*
X132149500Y-96291692D01*
X132149500Y-97163330D01*
X132149499Y-97163348D01*
X132149499Y-97329054D01*
X132149498Y-97329054D01*
X132190424Y-97481789D01*
X132190425Y-97481790D01*
X132211455Y-97518214D01*
X132211456Y-97518216D01*
X132269475Y-97618709D01*
X132269481Y-97618717D01*
X132388349Y-97737585D01*
X132388355Y-97737590D01*
X134765139Y-100114374D01*
X134765149Y-100114385D01*
X134769479Y-100118715D01*
X134769480Y-100118716D01*
X134881284Y-100230520D01*
X134948767Y-100269481D01*
X135018215Y-100309577D01*
X135170943Y-100350501D01*
X135170946Y-100350501D01*
X135336653Y-100350501D01*
X135336669Y-100350500D01*
X138025499Y-100350500D01*
X138092538Y-100370185D01*
X138138293Y-100422989D01*
X138149499Y-100474500D01*
X138149499Y-100579054D01*
X138149498Y-100579054D01*
X138160125Y-100618713D01*
X138190423Y-100731785D01*
X138212187Y-100769481D01*
X138219358Y-100781900D01*
X138219359Y-100781904D01*
X138219360Y-100781904D01*
X138266284Y-100863181D01*
X138269479Y-100868714D01*
X138269481Y-100868717D01*
X138363181Y-100962417D01*
X138396666Y-101023740D01*
X138399500Y-101050098D01*
X138399500Y-102670158D01*
X138379815Y-102737197D01*
X138340778Y-102775585D01*
X138288566Y-102807913D01*
X138127573Y-102954676D01*
X138098953Y-102992576D01*
X138042844Y-103034211D01*
X137973132Y-103038902D01*
X137911950Y-103005159D01*
X137901047Y-102992576D01*
X137872426Y-102954676D01*
X137711433Y-102807913D01*
X137711432Y-102807912D01*
X137659222Y-102775585D01*
X137612587Y-102723557D01*
X137600500Y-102670158D01*
X137600500Y-101170945D01*
X137600500Y-101170943D01*
X137559577Y-101018216D01*
X137537814Y-100980521D01*
X137480524Y-100881290D01*
X137480518Y-100881282D01*
X137368717Y-100769481D01*
X137368709Y-100769475D01*
X137231790Y-100690426D01*
X137231786Y-100690424D01*
X137231784Y-100690423D01*
X137079057Y-100649500D01*
X137079056Y-100649500D01*
X134300097Y-100649500D01*
X134233058Y-100629815D01*
X134212416Y-100613181D01*
X132987590Y-99388355D01*
X132987588Y-99388352D01*
X132868717Y-99269481D01*
X132868716Y-99269480D01*
X132781904Y-99219360D01*
X132781904Y-99219359D01*
X132781900Y-99219358D01*
X132731785Y-99190423D01*
X132579057Y-99149499D01*
X132420943Y-99149499D01*
X132413347Y-99149499D01*
X132413331Y-99149500D01*
X129300097Y-99149500D01*
X129233058Y-99129815D01*
X129212416Y-99113181D01*
X127636819Y-97537584D01*
X127603334Y-97476261D01*
X127600500Y-97449903D01*
X127600500Y-96291692D01*
X127620185Y-96224653D01*
X127653374Y-96190119D01*
X127839139Y-96060047D01*
X128000047Y-95899139D01*
X128130568Y-95712734D01*
X128226739Y-95506496D01*
X128285635Y-95286692D01*
X128305468Y-95060000D01*
X128300218Y-94999998D01*
X128299801Y-94995230D01*
X128285635Y-94833308D01*
X128226739Y-94613504D01*
X128130568Y-94407266D01*
X128000047Y-94220861D01*
X128000045Y-94220858D01*
X127839141Y-94059954D01*
X127652734Y-93929432D01*
X127652732Y-93929431D01*
X127446497Y-93833261D01*
X127446488Y-93833258D01*
X127226697Y-93774366D01*
X127226693Y-93774365D01*
X127226692Y-93774365D01*
X127226691Y-93774364D01*
X127226686Y-93774364D01*
X127000002Y-93754532D01*
X126999998Y-93754532D01*
X126773313Y-93774364D01*
X126773302Y-93774366D01*
X126553511Y-93833258D01*
X126553502Y-93833261D01*
X126347267Y-93929431D01*
X126347265Y-93929432D01*
X126160858Y-94059954D01*
X125999954Y-94220858D01*
X125869432Y-94407265D01*
X125869431Y-94407267D01*
X125773261Y-94613502D01*
X125773258Y-94613511D01*
X125714366Y-94833302D01*
X125714364Y-94833313D01*
X125694532Y-95059998D01*
X125694532Y-95060001D01*
X125714364Y-95286686D01*
X125714366Y-95286697D01*
X125773258Y-95506488D01*
X125773261Y-95506497D01*
X125869431Y-95712732D01*
X125869432Y-95712734D01*
X125999954Y-95899141D01*
X126160858Y-96060045D01*
X126160861Y-96060047D01*
X126346624Y-96190118D01*
X126390248Y-96244693D01*
X126399500Y-96291692D01*
X126399500Y-97663330D01*
X126399499Y-97663348D01*
X126399499Y-97829054D01*
X126399498Y-97829054D01*
X126440424Y-97981789D01*
X126440425Y-97981790D01*
X126462186Y-98019480D01*
X126462187Y-98019482D01*
X126519475Y-98118709D01*
X126519481Y-98118717D01*
X126638349Y-98237585D01*
X126638355Y-98237590D01*
X128515139Y-100114374D01*
X128515149Y-100114385D01*
X128519479Y-100118715D01*
X128519480Y-100118716D01*
X128631284Y-100230520D01*
X128698767Y-100269481D01*
X128768215Y-100309577D01*
X128920943Y-100350500D01*
X132199903Y-100350500D01*
X132266942Y-100370185D01*
X132287584Y-100386819D01*
X133515139Y-101614374D01*
X133515149Y-101614385D01*
X133519479Y-101618715D01*
X133519480Y-101618716D01*
X133588583Y-101687819D01*
X133622067Y-101749140D01*
X133617083Y-101818832D01*
X133575212Y-101874766D01*
X133509748Y-101899183D01*
X133500901Y-101899499D01*
X133413347Y-101899499D01*
X133413331Y-101899500D01*
X130550098Y-101899500D01*
X130483059Y-101879815D01*
X130462417Y-101863181D01*
X129737590Y-101138355D01*
X129737588Y-101138352D01*
X129618716Y-101019480D01*
X129618714Y-101019479D01*
X129618712Y-101019478D01*
X129531904Y-100969360D01*
X129531904Y-100969359D01*
X129531900Y-100969358D01*
X129481785Y-100940423D01*
X129329057Y-100899499D01*
X129170943Y-100899499D01*
X129163347Y-100899499D01*
X129163331Y-100899500D01*
X125800097Y-100899500D01*
X125733058Y-100879815D01*
X125712416Y-100863181D01*
X121636819Y-96787584D01*
X121603334Y-96726261D01*
X121600500Y-96699903D01*
X121600500Y-96231692D01*
X121620185Y-96164653D01*
X121653374Y-96130119D01*
X121839139Y-96000047D01*
X122000047Y-95839139D01*
X122130568Y-95652734D01*
X122226739Y-95446496D01*
X122285635Y-95226692D01*
X122305468Y-95000000D01*
X122285635Y-94773308D01*
X122226739Y-94553504D01*
X122130568Y-94347266D01*
X122000047Y-94160861D01*
X122000045Y-94160858D01*
X121839141Y-93999954D01*
X121652734Y-93869432D01*
X121652732Y-93869431D01*
X121446497Y-93773261D01*
X121446488Y-93773258D01*
X121226697Y-93714366D01*
X121226693Y-93714365D01*
X121226692Y-93714365D01*
X121226691Y-93714364D01*
X121226686Y-93714364D01*
X121000002Y-93694532D01*
X120999998Y-93694532D01*
X120773313Y-93714364D01*
X120773302Y-93714366D01*
X120553511Y-93773258D01*
X120553502Y-93773261D01*
X120347267Y-93869431D01*
X120347265Y-93869432D01*
X120160858Y-93999954D01*
X119999954Y-94160858D01*
X119869432Y-94347265D01*
X119869431Y-94347267D01*
X119773261Y-94553502D01*
X119773258Y-94553511D01*
X119714366Y-94773302D01*
X119714364Y-94773313D01*
X119694532Y-94999998D01*
X119694532Y-95000001D01*
X119714364Y-95226686D01*
X119714366Y-95226697D01*
X119773258Y-95446488D01*
X119773261Y-95446497D01*
X119869431Y-95652732D01*
X119869432Y-95652734D01*
X119999954Y-95839141D01*
X120160858Y-96000045D01*
X120160861Y-96000047D01*
X120346624Y-96130118D01*
X120390248Y-96184693D01*
X120399500Y-96231692D01*
X120399500Y-96913330D01*
X120399499Y-96913348D01*
X120399499Y-97079054D01*
X120399498Y-97079054D01*
X120440424Y-97231789D01*
X120440425Y-97231790D01*
X120462186Y-97269480D01*
X120462187Y-97269482D01*
X120519475Y-97368709D01*
X120519481Y-97368717D01*
X120638349Y-97487585D01*
X120638355Y-97487590D01*
X125015139Y-101864374D01*
X125015149Y-101864385D01*
X125019479Y-101868715D01*
X125019480Y-101868716D01*
X125131284Y-101980520D01*
X125198767Y-102019481D01*
X125268215Y-102059577D01*
X125420943Y-102100501D01*
X125420946Y-102100501D01*
X125586653Y-102100501D01*
X125586669Y-102100500D01*
X128949903Y-102100500D01*
X129016942Y-102120185D01*
X129037583Y-102136818D01*
X129881284Y-102980520D01*
X129881286Y-102980521D01*
X129881290Y-102980524D01*
X130018209Y-103059573D01*
X130018216Y-103059577D01*
X130170943Y-103100501D01*
X130170945Y-103100501D01*
X130336654Y-103100501D01*
X130336670Y-103100500D01*
X133199901Y-103100500D01*
X133266940Y-103120185D01*
X133287582Y-103136818D01*
X133381284Y-103230520D01*
X133381286Y-103230521D01*
X133381290Y-103230524D01*
X133518209Y-103309573D01*
X133518216Y-103309577D01*
X133630019Y-103339534D01*
X133670942Y-103350500D01*
X133670943Y-103350500D01*
X133699903Y-103350500D01*
X133766942Y-103370185D01*
X133787584Y-103386819D01*
X133808920Y-103408155D01*
X133842405Y-103469478D01*
X133840581Y-103527439D01*
X133840618Y-103527446D01*
X133840574Y-103527679D01*
X133840509Y-103529757D01*
X133839566Y-103533072D01*
X133839564Y-103533078D01*
X133819464Y-103749999D01*
X133819464Y-103750000D01*
X133839564Y-103966918D01*
X133839564Y-103966920D01*
X133839565Y-103966923D01*
X133899183Y-104176459D01*
X133996288Y-104371472D01*
X134117877Y-104532483D01*
X134131028Y-104549897D01*
X134129086Y-104551363D01*
X134155122Y-104604734D01*
X134146942Y-104674123D01*
X134102547Y-104728075D01*
X134036030Y-104749460D01*
X134032873Y-104749500D01*
X100624500Y-104749500D01*
X100557461Y-104729815D01*
X100511706Y-104677011D01*
X100500500Y-104625500D01*
X100500500Y-101102351D01*
X117699500Y-101102351D01*
X117731522Y-101304534D01*
X117794781Y-101499223D01*
X117887715Y-101681613D01*
X118008028Y-101847213D01*
X118152786Y-101991971D01*
X118245840Y-102059577D01*
X118318390Y-102112287D01*
X118391423Y-102149499D01*
X118500776Y-102205218D01*
X118500778Y-102205218D01*
X118500781Y-102205220D01*
X118605137Y-102239127D01*
X118695465Y-102268477D01*
X118796557Y-102284488D01*
X118897648Y-102300500D01*
X118897649Y-102300500D01*
X119102351Y-102300500D01*
X119102352Y-102300500D01*
X119304534Y-102268477D01*
X119499219Y-102205220D01*
X119681610Y-102112287D01*
X119809349Y-102019480D01*
X119847213Y-101991971D01*
X119847215Y-101991968D01*
X119847219Y-101991966D01*
X119991966Y-101847219D01*
X119991968Y-101847215D01*
X119991971Y-101847213D01*
X120045825Y-101773088D01*
X120112287Y-101681610D01*
X120205220Y-101499219D01*
X120268477Y-101304534D01*
X120300500Y-101102352D01*
X120300500Y-100897648D01*
X120274230Y-100731790D01*
X120268477Y-100695465D01*
X120224324Y-100559577D01*
X120205220Y-100500781D01*
X120205218Y-100500778D01*
X120205218Y-100500776D01*
X120144334Y-100381286D01*
X120112287Y-100318390D01*
X120076751Y-100269478D01*
X119991971Y-100152786D01*
X119847213Y-100008028D01*
X119681613Y-99887715D01*
X119681612Y-99887714D01*
X119681610Y-99887713D01*
X119624653Y-99858691D01*
X119499223Y-99794781D01*
X119304534Y-99731522D01*
X119129995Y-99703878D01*
X119102352Y-99699500D01*
X118897648Y-99699500D01*
X118873329Y-99703351D01*
X118695465Y-99731522D01*
X118500776Y-99794781D01*
X118318386Y-99887715D01*
X118152786Y-100008028D01*
X118008028Y-100152786D01*
X117887715Y-100318386D01*
X117794781Y-100500776D01*
X117731522Y-100695465D01*
X117699500Y-100897648D01*
X117699500Y-101102351D01*
X100500500Y-101102351D01*
X100500500Y-80975645D01*
X101579786Y-80975645D01*
X101598608Y-81202807D01*
X101598610Y-81202818D01*
X101654569Y-81423794D01*
X101746137Y-81632547D01*
X101870814Y-81823381D01*
X102025208Y-81991097D01*
X102025212Y-81991100D01*
X102107899Y-82055458D01*
X102205094Y-82131108D01*
X102205096Y-82131109D01*
X102205099Y-82131111D01*
X102294517Y-82179501D01*
X102344108Y-82228720D01*
X102359500Y-82288556D01*
X102359500Y-88113479D01*
X102339815Y-88180518D01*
X102287011Y-88226273D01*
X102278833Y-88229661D01*
X102207671Y-88256202D01*
X102207664Y-88256206D01*
X102092455Y-88342452D01*
X102092452Y-88342455D01*
X102006206Y-88457664D01*
X102006202Y-88457671D01*
X101955908Y-88592517D01*
X101949501Y-88652116D01*
X101949501Y-88652123D01*
X101949500Y-88652135D01*
X101949500Y-90347870D01*
X101949501Y-90347876D01*
X101955908Y-90407483D01*
X102006202Y-90542328D01*
X102006206Y-90542335D01*
X102092452Y-90657544D01*
X102092455Y-90657547D01*
X102207664Y-90743793D01*
X102207671Y-90743797D01*
X102342517Y-90794091D01*
X102342516Y-90794091D01*
X102349444Y-90794835D01*
X102402127Y-90800500D01*
X104097872Y-90800499D01*
X104157483Y-90794091D01*
X104292331Y-90743796D01*
X104407545Y-90657547D01*
X104407751Y-90657393D01*
X104473215Y-90632975D01*
X104541488Y-90647826D01*
X104569743Y-90668978D01*
X107765139Y-93864374D01*
X107765149Y-93864385D01*
X107769479Y-93868715D01*
X107769480Y-93868716D01*
X107881284Y-93980520D01*
X107955316Y-94023261D01*
X107968095Y-94030639D01*
X107968097Y-94030641D01*
X108018208Y-94059573D01*
X108018215Y-94059577D01*
X108170942Y-94100500D01*
X108170943Y-94100500D01*
X108170944Y-94100500D01*
X114079055Y-94100500D01*
X114079057Y-94100500D01*
X114231784Y-94059577D01*
X114368716Y-93980520D01*
X114480520Y-93868716D01*
X114559577Y-93731784D01*
X114600500Y-93579057D01*
X114600500Y-88104500D01*
X114620185Y-88037461D01*
X114672989Y-87991706D01*
X114724500Y-87980500D01*
X119768308Y-87980500D01*
X119835347Y-88000185D01*
X119869880Y-88033374D01*
X119900075Y-88076497D01*
X119999954Y-88219141D01*
X120160858Y-88380045D01*
X120160861Y-88380047D01*
X120347266Y-88510568D01*
X120553504Y-88606739D01*
X120773308Y-88665635D01*
X120935230Y-88679801D01*
X120999998Y-88685468D01*
X121000000Y-88685468D01*
X121000002Y-88685468D01*
X121056673Y-88680509D01*
X121226692Y-88665635D01*
X121446496Y-88606739D01*
X121652734Y-88510568D01*
X121839139Y-88380047D01*
X122000047Y-88219139D01*
X122130568Y-88032734D01*
X122226739Y-87826496D01*
X122285635Y-87606692D01*
X122305468Y-87380000D01*
X122285635Y-87153308D01*
X122226739Y-86933504D01*
X122130568Y-86727266D01*
X122000047Y-86540861D01*
X122000045Y-86540858D01*
X121839141Y-86379954D01*
X121652734Y-86249432D01*
X121652732Y-86249431D01*
X121446497Y-86153261D01*
X121446488Y-86153258D01*
X121226697Y-86094366D01*
X121226693Y-86094365D01*
X121226692Y-86094365D01*
X121226691Y-86094364D01*
X121226686Y-86094364D01*
X121000002Y-86074532D01*
X120999998Y-86074532D01*
X120773313Y-86094364D01*
X120773302Y-86094366D01*
X120553511Y-86153258D01*
X120553502Y-86153261D01*
X120347267Y-86249431D01*
X120347265Y-86249432D01*
X120160858Y-86379954D01*
X119999954Y-86540858D01*
X119932137Y-86637713D01*
X119869881Y-86726624D01*
X119815307Y-86770248D01*
X119768308Y-86779500D01*
X114206670Y-86779500D01*
X114206654Y-86779499D01*
X114199058Y-86779499D01*
X114040943Y-86779499D01*
X113964579Y-86799961D01*
X113888214Y-86820423D01*
X113888209Y-86820426D01*
X113751290Y-86899475D01*
X113751282Y-86899481D01*
X113519481Y-87131282D01*
X113519479Y-87131285D01*
X113506762Y-87153313D01*
X113489331Y-87183504D01*
X113440423Y-87268215D01*
X113399499Y-87420943D01*
X113399499Y-87420945D01*
X113399499Y-87589046D01*
X113399500Y-87589059D01*
X113399500Y-92775500D01*
X113379815Y-92842539D01*
X113327011Y-92888294D01*
X113275500Y-92899500D01*
X108550097Y-92899500D01*
X108483058Y-92879815D01*
X108462416Y-92863181D01*
X106596379Y-90997144D01*
X106562894Y-90935821D01*
X106567878Y-90866129D01*
X106609750Y-90810196D01*
X106671377Y-90786654D01*
X106671363Y-90786574D01*
X106671781Y-90786500D01*
X106673260Y-90785935D01*
X106676692Y-90785635D01*
X106896496Y-90726739D01*
X107102734Y-90630568D01*
X107289139Y-90500047D01*
X107450047Y-90339139D01*
X107580568Y-90152734D01*
X107676739Y-89946496D01*
X107735635Y-89726692D01*
X107755468Y-89500000D01*
X107735635Y-89273308D01*
X107676739Y-89053504D01*
X107580568Y-88847266D01*
X107450047Y-88660861D01*
X107450045Y-88660858D01*
X107289140Y-88499953D01*
X107103377Y-88369881D01*
X107059752Y-88315304D01*
X107050500Y-88268306D01*
X107050500Y-87852352D01*
X109699500Y-87852352D01*
X109700188Y-87856697D01*
X109731522Y-88054534D01*
X109794781Y-88249223D01*
X109887715Y-88431613D01*
X110008028Y-88597213D01*
X110152786Y-88741971D01*
X110307749Y-88854556D01*
X110318390Y-88862287D01*
X110409094Y-88908503D01*
X110500776Y-88955218D01*
X110500778Y-88955218D01*
X110500781Y-88955220D01*
X110605137Y-88989127D01*
X110695465Y-89018477D01*
X110796557Y-89034488D01*
X110897648Y-89050500D01*
X110897649Y-89050500D01*
X111102351Y-89050500D01*
X111102352Y-89050500D01*
X111304534Y-89018477D01*
X111499219Y-88955220D01*
X111681610Y-88862287D01*
X111787116Y-88785633D01*
X111847213Y-88741971D01*
X111847215Y-88741968D01*
X111847219Y-88741966D01*
X111991966Y-88597219D01*
X111991968Y-88597215D01*
X111991971Y-88597213D01*
X112085019Y-88469141D01*
X112112287Y-88431610D01*
X112205220Y-88249219D01*
X112268477Y-88054534D01*
X112300500Y-87852352D01*
X112300500Y-87647648D01*
X112277115Y-87500001D01*
X112268477Y-87445465D01*
X112212539Y-87273308D01*
X112205220Y-87250781D01*
X112205218Y-87250778D01*
X112205218Y-87250776D01*
X112155552Y-87153302D01*
X112112287Y-87068390D01*
X112076752Y-87019480D01*
X111991971Y-86902786D01*
X111847213Y-86758028D01*
X111681613Y-86637715D01*
X111681612Y-86637714D01*
X111681610Y-86637713D01*
X111609278Y-86600858D01*
X111499223Y-86544781D01*
X111304534Y-86481522D01*
X111129995Y-86453878D01*
X111102352Y-86449500D01*
X110897648Y-86449500D01*
X110873329Y-86453351D01*
X110695465Y-86481522D01*
X110500776Y-86544781D01*
X110318386Y-86637715D01*
X110152786Y-86758028D01*
X110008028Y-86902786D01*
X109887715Y-87068386D01*
X109794781Y-87250776D01*
X109731522Y-87445465D01*
X109702295Y-87630000D01*
X109699500Y-87647648D01*
X109699500Y-87852352D01*
X107050500Y-87852352D01*
X107050500Y-85350097D01*
X107070185Y-85283058D01*
X107086817Y-85262418D01*
X107108502Y-85240732D01*
X107108507Y-85240728D01*
X107118714Y-85230520D01*
X107118716Y-85230520D01*
X107230520Y-85118716D01*
X107264664Y-85059577D01*
X107287813Y-85019482D01*
X107287814Y-85019480D01*
X107309574Y-84981790D01*
X107309573Y-84981790D01*
X107309577Y-84981785D01*
X107350500Y-84829057D01*
X107350500Y-84670943D01*
X107350500Y-84170943D01*
X107320660Y-84059577D01*
X107309577Y-84018215D01*
X107276510Y-83960942D01*
X107230520Y-83881284D01*
X107118716Y-83769480D01*
X107118715Y-83769479D01*
X107114385Y-83765149D01*
X107114374Y-83765139D01*
X106169000Y-82819765D01*
X106135515Y-82758442D01*
X106132681Y-82732084D01*
X106132681Y-81290006D01*
X111354786Y-81290006D01*
X111373608Y-81517168D01*
X111373610Y-81517179D01*
X111429569Y-81738155D01*
X111521137Y-81946908D01*
X111645814Y-82137742D01*
X111679807Y-82174668D01*
X111798833Y-82303965D01*
X111800208Y-82305458D01*
X111800212Y-82305461D01*
X111980090Y-82445466D01*
X111980094Y-82445469D01*
X111980096Y-82445470D01*
X111980099Y-82445472D01*
X112069517Y-82493862D01*
X112119108Y-82543081D01*
X112134500Y-82602917D01*
X112134500Y-83648330D01*
X112134499Y-83648348D01*
X112134499Y-83814054D01*
X112134498Y-83814054D01*
X112175423Y-83966787D01*
X112175424Y-83966788D01*
X112183351Y-83980517D01*
X112183353Y-83980520D01*
X112254477Y-84103712D01*
X112254481Y-84103717D01*
X112373349Y-84222585D01*
X112373355Y-84222590D01*
X113515139Y-85364374D01*
X113515149Y-85364385D01*
X113519479Y-85368715D01*
X113519480Y-85368716D01*
X113631284Y-85480520D01*
X113698767Y-85519481D01*
X113768215Y-85559577D01*
X113920943Y-85600500D01*
X114079057Y-85600500D01*
X123699901Y-85600500D01*
X123766940Y-85620185D01*
X123787582Y-85636818D01*
X123881284Y-85730520D01*
X123881286Y-85730521D01*
X123881290Y-85730524D01*
X123948765Y-85769480D01*
X124018216Y-85809577D01*
X124130019Y-85839534D01*
X124170942Y-85850500D01*
X124170943Y-85850500D01*
X124509903Y-85850500D01*
X124576942Y-85870185D01*
X124597584Y-85886819D01*
X125708058Y-86997293D01*
X125741543Y-87058616D01*
X125740152Y-87117067D01*
X125714366Y-87213302D01*
X125714364Y-87213313D01*
X125694532Y-87439998D01*
X125694532Y-87440001D01*
X125714364Y-87666686D01*
X125714366Y-87666697D01*
X125773258Y-87886488D01*
X125773261Y-87886497D01*
X125869431Y-88092732D01*
X125869432Y-88092734D01*
X125999954Y-88279141D01*
X126160858Y-88440045D01*
X126160861Y-88440047D01*
X126347266Y-88570568D01*
X126553504Y-88666739D01*
X126773308Y-88725635D01*
X126935230Y-88739801D01*
X126999998Y-88745468D01*
X127000000Y-88745468D01*
X127000002Y-88745468D01*
X127056673Y-88740509D01*
X127226692Y-88725635D01*
X127446496Y-88666739D01*
X127652734Y-88570568D01*
X127839139Y-88440047D01*
X128000047Y-88279139D01*
X128130568Y-88092734D01*
X128226739Y-87886496D01*
X128285635Y-87666692D01*
X128305468Y-87440000D01*
X128300218Y-87379998D01*
X128299801Y-87375230D01*
X128285635Y-87213308D01*
X128226739Y-86993504D01*
X128130568Y-86787266D01*
X128000047Y-86600861D01*
X128000045Y-86600858D01*
X127839141Y-86439954D01*
X127652734Y-86309432D01*
X127652732Y-86309431D01*
X127446497Y-86213261D01*
X127446488Y-86213258D01*
X127226697Y-86154366D01*
X127226693Y-86154365D01*
X127226692Y-86154365D01*
X127226691Y-86154364D01*
X127226686Y-86154364D01*
X127000002Y-86134532D01*
X126999998Y-86134532D01*
X126773313Y-86154364D01*
X126773302Y-86154366D01*
X126677067Y-86180152D01*
X126607217Y-86178489D01*
X126557293Y-86148058D01*
X125456585Y-85047350D01*
X125423100Y-84986027D01*
X125428084Y-84916335D01*
X125469956Y-84860402D01*
X125535420Y-84835985D01*
X125576356Y-84839893D01*
X125615943Y-84850501D01*
X125615945Y-84850501D01*
X125781654Y-84850501D01*
X125781670Y-84850500D01*
X129949903Y-84850500D01*
X130016942Y-84870185D01*
X130037584Y-84886819D01*
X131677069Y-86526304D01*
X131710554Y-86587627D01*
X131705570Y-86657319D01*
X131690963Y-86685108D01*
X131619432Y-86787265D01*
X131619431Y-86787267D01*
X131523261Y-86993502D01*
X131523258Y-86993511D01*
X131464366Y-87213302D01*
X131464364Y-87213313D01*
X131444532Y-87439998D01*
X131444532Y-87440001D01*
X131464364Y-87666686D01*
X131464366Y-87666697D01*
X131523258Y-87886488D01*
X131523261Y-87886497D01*
X131619431Y-88092732D01*
X131619432Y-88092734D01*
X131749954Y-88279141D01*
X131910858Y-88440045D01*
X131910861Y-88440047D01*
X132097266Y-88570568D01*
X132303504Y-88666739D01*
X132523308Y-88725635D01*
X132685230Y-88739801D01*
X132749998Y-88745468D01*
X132750000Y-88745468D01*
X132750002Y-88745468D01*
X132806673Y-88740509D01*
X132976692Y-88725635D01*
X133196496Y-88666739D01*
X133402734Y-88570568D01*
X133589139Y-88440047D01*
X133750047Y-88279139D01*
X133880568Y-88092734D01*
X133976739Y-87886496D01*
X134035635Y-87666692D01*
X134055468Y-87440000D01*
X134050218Y-87379998D01*
X134049801Y-87375230D01*
X134035635Y-87213308D01*
X133976739Y-86993504D01*
X133880568Y-86787266D01*
X133750047Y-86600861D01*
X133750045Y-86600858D01*
X133589141Y-86439954D01*
X133402734Y-86309432D01*
X133402732Y-86309431D01*
X133272570Y-86248735D01*
X133196496Y-86213261D01*
X133045538Y-86172811D01*
X132989953Y-86140718D01*
X130737590Y-83888355D01*
X130737588Y-83888352D01*
X130618716Y-83769480D01*
X130618714Y-83769479D01*
X130527443Y-83716784D01*
X130481785Y-83690423D01*
X130329057Y-83649499D01*
X130170943Y-83649499D01*
X130163347Y-83649499D01*
X130163331Y-83649500D01*
X125995098Y-83649500D01*
X125928059Y-83629815D01*
X125907417Y-83613181D01*
X123838626Y-81544391D01*
X123805141Y-81483068D01*
X123806102Y-81426269D01*
X123846387Y-81267188D01*
X123846389Y-81267179D01*
X123846390Y-81267176D01*
X123853146Y-81185645D01*
X123865214Y-81040006D01*
X130604786Y-81040006D01*
X130623608Y-81267168D01*
X130623610Y-81267179D01*
X130679569Y-81488155D01*
X130771137Y-81696908D01*
X130895814Y-81887742D01*
X131050208Y-82055458D01*
X131050212Y-82055461D01*
X131221423Y-82188720D01*
X131230094Y-82195469D01*
X131230096Y-82195470D01*
X131230099Y-82195472D01*
X131319517Y-82243862D01*
X131369108Y-82293081D01*
X131384500Y-82352917D01*
X131384500Y-83398330D01*
X131384499Y-83398348D01*
X131384499Y-83564054D01*
X131384498Y-83564054D01*
X131384499Y-83564057D01*
X131425423Y-83716785D01*
X131438770Y-83739902D01*
X131454358Y-83766900D01*
X131454359Y-83766904D01*
X131454360Y-83766904D01*
X131504479Y-83853714D01*
X131504481Y-83853717D01*
X131623349Y-83972585D01*
X131623355Y-83972590D01*
X133265139Y-85614374D01*
X133265149Y-85614385D01*
X133269479Y-85618715D01*
X133269480Y-85618716D01*
X133381284Y-85730520D01*
X133446565Y-85768209D01*
X133468095Y-85780639D01*
X133468097Y-85780641D01*
X133506151Y-85802611D01*
X133518215Y-85809577D01*
X133670943Y-85850501D01*
X133670946Y-85850501D01*
X133836653Y-85850501D01*
X133836669Y-85850500D01*
X137775499Y-85850500D01*
X137842538Y-85870185D01*
X137888293Y-85922989D01*
X137899499Y-85974500D01*
X137899499Y-86079054D01*
X137899498Y-86079054D01*
X137940423Y-86231785D01*
X137969358Y-86281900D01*
X137969359Y-86281904D01*
X137969360Y-86281904D01*
X138007337Y-86347684D01*
X138019479Y-86368714D01*
X138019481Y-86368717D01*
X138059192Y-86408428D01*
X138092677Y-86469751D01*
X138087693Y-86539443D01*
X138045821Y-86595376D01*
X138042635Y-86597684D01*
X137910856Y-86689956D01*
X137749954Y-86850858D01*
X137619432Y-87037265D01*
X137619431Y-87037267D01*
X137523261Y-87243502D01*
X137523258Y-87243511D01*
X137464366Y-87463302D01*
X137464364Y-87463313D01*
X137444532Y-87689998D01*
X137444532Y-87690001D01*
X137464364Y-87916686D01*
X137464366Y-87916697D01*
X137523258Y-88136488D01*
X137523261Y-88136497D01*
X137619431Y-88342732D01*
X137619432Y-88342734D01*
X137749954Y-88529141D01*
X137910858Y-88690045D01*
X137910861Y-88690047D01*
X138097266Y-88820568D01*
X138303504Y-88916739D01*
X138523308Y-88975635D01*
X138685230Y-88989801D01*
X138749998Y-88995468D01*
X138750000Y-88995468D01*
X138750002Y-88995468D01*
X138806673Y-88990509D01*
X138976692Y-88975635D01*
X139196496Y-88916739D01*
X139402734Y-88820568D01*
X139589139Y-88690047D01*
X139750047Y-88529139D01*
X139880568Y-88342734D01*
X139976739Y-88136496D01*
X140035635Y-87916692D01*
X140055468Y-87690000D01*
X140050218Y-87629998D01*
X140035635Y-87463313D01*
X140035635Y-87463308D01*
X139976739Y-87243504D01*
X139880568Y-87037266D01*
X139750047Y-86850861D01*
X139750045Y-86850858D01*
X139589140Y-86689953D01*
X139403377Y-86559881D01*
X139359752Y-86505304D01*
X139350500Y-86458306D01*
X139350500Y-86170943D01*
X139344754Y-86149500D01*
X139325879Y-86079057D01*
X139309577Y-86018216D01*
X139309575Y-86018212D01*
X139309574Y-86018209D01*
X139230524Y-85881290D01*
X139230521Y-85881286D01*
X139230520Y-85881284D01*
X139136818Y-85787582D01*
X139103334Y-85726258D01*
X139100500Y-85699901D01*
X139100500Y-85420945D01*
X139100500Y-85420943D01*
X139099903Y-85418716D01*
X139081625Y-85350500D01*
X139059577Y-85268216D01*
X139037814Y-85230521D01*
X138980524Y-85131290D01*
X138980521Y-85131286D01*
X138980520Y-85131284D01*
X138868716Y-85019480D01*
X138868715Y-85019479D01*
X138864385Y-85015149D01*
X138864374Y-85015139D01*
X138737590Y-84888355D01*
X138737588Y-84888352D01*
X138618716Y-84769480D01*
X138618714Y-84769479D01*
X138527443Y-84716784D01*
X138481785Y-84690423D01*
X138329057Y-84649499D01*
X138170943Y-84649499D01*
X138163347Y-84649499D01*
X138163331Y-84649500D01*
X134050097Y-84649500D01*
X133983058Y-84629815D01*
X133962416Y-84613181D01*
X132621819Y-83272584D01*
X132588334Y-83211261D01*
X132585500Y-83184903D01*
X132585500Y-82352917D01*
X132605185Y-82285878D01*
X132650483Y-82243862D01*
X132704429Y-82214668D01*
X132739906Y-82195469D01*
X132919794Y-82055456D01*
X133074183Y-81887745D01*
X133198862Y-81696909D01*
X133290430Y-81488155D01*
X133346390Y-81267176D01*
X133353146Y-81185645D01*
X133365214Y-81040006D01*
X139854786Y-81040006D01*
X139873608Y-81267168D01*
X139873610Y-81267179D01*
X139929569Y-81488155D01*
X140021137Y-81696908D01*
X140145814Y-81887742D01*
X140300208Y-82055458D01*
X140300212Y-82055461D01*
X140471423Y-82188720D01*
X140480094Y-82195469D01*
X140480096Y-82195470D01*
X140480099Y-82195472D01*
X140569517Y-82243862D01*
X140619108Y-82293081D01*
X140634500Y-82352917D01*
X140634500Y-84398330D01*
X140634499Y-84398348D01*
X140634499Y-84564054D01*
X140634498Y-84564054D01*
X140635952Y-84569480D01*
X140675423Y-84716785D01*
X140704358Y-84766900D01*
X140704359Y-84766904D01*
X140704360Y-84766904D01*
X140754480Y-84853716D01*
X140769480Y-84868716D01*
X140881284Y-84980520D01*
X140948767Y-85019481D01*
X141018215Y-85059577D01*
X141170942Y-85100500D01*
X141170943Y-85100500D01*
X143199903Y-85100500D01*
X143266942Y-85120185D01*
X143287584Y-85136819D01*
X144113181Y-85962416D01*
X144146666Y-86023739D01*
X144149500Y-86050097D01*
X144149500Y-86398306D01*
X144129815Y-86465345D01*
X144096623Y-86499881D01*
X143910859Y-86629953D01*
X143749954Y-86790858D01*
X143619432Y-86977265D01*
X143619431Y-86977267D01*
X143523261Y-87183502D01*
X143523258Y-87183511D01*
X143464366Y-87403302D01*
X143464364Y-87403313D01*
X143444532Y-87629998D01*
X143444532Y-87630001D01*
X143464364Y-87856686D01*
X143464366Y-87856697D01*
X143523258Y-88076488D01*
X143523261Y-88076497D01*
X143619431Y-88282732D01*
X143619432Y-88282734D01*
X143749954Y-88469141D01*
X143910858Y-88630045D01*
X143910861Y-88630047D01*
X144097266Y-88760568D01*
X144303504Y-88856739D01*
X144303509Y-88856740D01*
X144303511Y-88856741D01*
X144356415Y-88870916D01*
X144523308Y-88915635D01*
X144685230Y-88929801D01*
X144749998Y-88935468D01*
X144750000Y-88935468D01*
X144750002Y-88935468D01*
X144806673Y-88930509D01*
X144976692Y-88915635D01*
X145196496Y-88856739D01*
X145402734Y-88760568D01*
X145589139Y-88630047D01*
X145750047Y-88469139D01*
X145880568Y-88282734D01*
X145976739Y-88076496D01*
X146035635Y-87856692D01*
X146055468Y-87630000D01*
X146035635Y-87403308D01*
X145976739Y-87183504D01*
X145880568Y-86977266D01*
X145750047Y-86790861D01*
X145750045Y-86790858D01*
X145589140Y-86629953D01*
X145403377Y-86499881D01*
X145359752Y-86445304D01*
X145350500Y-86398306D01*
X145350500Y-85839059D01*
X145350501Y-85839046D01*
X145350501Y-85670945D01*
X145350501Y-85670943D01*
X145309577Y-85518215D01*
X145280639Y-85468095D01*
X145230520Y-85381284D01*
X145118716Y-85269480D01*
X145118715Y-85269479D01*
X145114385Y-85265149D01*
X145114374Y-85265139D01*
X143987590Y-84138355D01*
X143987588Y-84138352D01*
X143868717Y-84019481D01*
X143868709Y-84019475D01*
X143775255Y-83965520D01*
X143775253Y-83965519D01*
X143731790Y-83940425D01*
X143731789Y-83940424D01*
X143719263Y-83937067D01*
X143579057Y-83899499D01*
X143420943Y-83899499D01*
X143413347Y-83899499D01*
X143413331Y-83899500D01*
X141959500Y-83899500D01*
X141892461Y-83879815D01*
X141846706Y-83827011D01*
X141835500Y-83775500D01*
X141835500Y-82352917D01*
X141855185Y-82285878D01*
X141900483Y-82243862D01*
X141954429Y-82214668D01*
X141989906Y-82195469D01*
X142169794Y-82055456D01*
X142324183Y-81887745D01*
X142448862Y-81696909D01*
X142540430Y-81488155D01*
X142596390Y-81267176D01*
X142603146Y-81185645D01*
X142615214Y-81040006D01*
X142615214Y-81039993D01*
X142606568Y-80935645D01*
X148619786Y-80935645D01*
X148638608Y-81162807D01*
X148638610Y-81162818D01*
X148694569Y-81383794D01*
X148786137Y-81592547D01*
X148910814Y-81783381D01*
X149065208Y-81951097D01*
X149065212Y-81951100D01*
X149170929Y-82033383D01*
X149245094Y-82091108D01*
X149245096Y-82091109D01*
X149245099Y-82091111D01*
X149310877Y-82126708D01*
X149331266Y-82137742D01*
X149334517Y-82139501D01*
X149384108Y-82188720D01*
X149399500Y-82248556D01*
X149399500Y-83413330D01*
X149399499Y-83413348D01*
X149399499Y-83579054D01*
X149399498Y-83579054D01*
X149440424Y-83731789D01*
X149440425Y-83731790D01*
X149462186Y-83769480D01*
X149462187Y-83769482D01*
X149519475Y-83868709D01*
X149519481Y-83868717D01*
X149638349Y-83987585D01*
X149638355Y-83987590D01*
X150113181Y-84462416D01*
X150146666Y-84523739D01*
X150149500Y-84550097D01*
X150149500Y-86208306D01*
X150129815Y-86275345D01*
X150096623Y-86309881D01*
X149910859Y-86439953D01*
X149749954Y-86600858D01*
X149619432Y-86787265D01*
X149619431Y-86787267D01*
X149523261Y-86993502D01*
X149523258Y-86993511D01*
X149464366Y-87213302D01*
X149464364Y-87213313D01*
X149444532Y-87439998D01*
X149444532Y-87440001D01*
X149464364Y-87666686D01*
X149464366Y-87666697D01*
X149523258Y-87886488D01*
X149523261Y-87886497D01*
X149619431Y-88092732D01*
X149619432Y-88092734D01*
X149749954Y-88279141D01*
X149910858Y-88440045D01*
X149910861Y-88440047D01*
X150097266Y-88570568D01*
X150303504Y-88666739D01*
X150523308Y-88725635D01*
X150685230Y-88739801D01*
X150749998Y-88745468D01*
X150750000Y-88745468D01*
X150750002Y-88745468D01*
X150806673Y-88740509D01*
X150976692Y-88725635D01*
X151196496Y-88666739D01*
X151402734Y-88570568D01*
X151589139Y-88440047D01*
X151750047Y-88279139D01*
X151880568Y-88092734D01*
X151976739Y-87886496D01*
X152035635Y-87666692D01*
X152055468Y-87440001D01*
X155444532Y-87440001D01*
X155464364Y-87666686D01*
X155464366Y-87666697D01*
X155523258Y-87886488D01*
X155523261Y-87886497D01*
X155619431Y-88092732D01*
X155619432Y-88092734D01*
X155749954Y-88279141D01*
X155910858Y-88440045D01*
X155910861Y-88440047D01*
X156097266Y-88570568D01*
X156303504Y-88666739D01*
X156523308Y-88725635D01*
X156685230Y-88739801D01*
X156749998Y-88745468D01*
X156750000Y-88745468D01*
X156750002Y-88745468D01*
X156806673Y-88740509D01*
X156976692Y-88725635D01*
X157196496Y-88666739D01*
X157402734Y-88570568D01*
X157589139Y-88440047D01*
X157750047Y-88279139D01*
X157880568Y-88092734D01*
X157976739Y-87886496D01*
X158035635Y-87666692D01*
X158055468Y-87440000D01*
X158050218Y-87380001D01*
X161944532Y-87380001D01*
X161964364Y-87606686D01*
X161964366Y-87606697D01*
X162023258Y-87826488D01*
X162023261Y-87826497D01*
X162119431Y-88032732D01*
X162119432Y-88032734D01*
X162249954Y-88219141D01*
X162410858Y-88380045D01*
X162410861Y-88380047D01*
X162597266Y-88510568D01*
X162803504Y-88606739D01*
X163023308Y-88665635D01*
X163185230Y-88679801D01*
X163249998Y-88685468D01*
X163250000Y-88685468D01*
X163250002Y-88685468D01*
X163306673Y-88680509D01*
X163476692Y-88665635D01*
X163696496Y-88606739D01*
X163902734Y-88510568D01*
X164089139Y-88380047D01*
X164250047Y-88219139D01*
X164380568Y-88032734D01*
X164476739Y-87826496D01*
X164535635Y-87606692D01*
X164544969Y-87500001D01*
X167944532Y-87500001D01*
X167964364Y-87726686D01*
X167964366Y-87726697D01*
X168023258Y-87946488D01*
X168023261Y-87946497D01*
X168119431Y-88152732D01*
X168119432Y-88152734D01*
X168249954Y-88339141D01*
X168410858Y-88500045D01*
X168410861Y-88500047D01*
X168597266Y-88630568D01*
X168803504Y-88726739D01*
X169023308Y-88785635D01*
X169185230Y-88799801D01*
X169249998Y-88805468D01*
X169250000Y-88805468D01*
X169250002Y-88805468D01*
X169306673Y-88800509D01*
X169476692Y-88785635D01*
X169696496Y-88726739D01*
X169902734Y-88630568D01*
X170089139Y-88500047D01*
X170250047Y-88339139D01*
X170380568Y-88152734D01*
X170476739Y-87946496D01*
X170535635Y-87726692D01*
X170555468Y-87500000D01*
X170550218Y-87439998D01*
X170547009Y-87403313D01*
X170535635Y-87273308D01*
X170476739Y-87053504D01*
X170380568Y-86847266D01*
X170250047Y-86660861D01*
X170250045Y-86660858D01*
X170089140Y-86499953D01*
X169903377Y-86369881D01*
X169859752Y-86315304D01*
X169850500Y-86268306D01*
X169850500Y-85800098D01*
X169870185Y-85733059D01*
X169886819Y-85712417D01*
X169928297Y-85670939D01*
X169980520Y-85618716D01*
X170059577Y-85481784D01*
X170070128Y-85442405D01*
X170106494Y-85382746D01*
X170169341Y-85352217D01*
X170189903Y-85350500D01*
X176190903Y-85350500D01*
X176257942Y-85370185D01*
X176303697Y-85422989D01*
X176313641Y-85492147D01*
X176284616Y-85555703D01*
X176278584Y-85562181D01*
X175692705Y-86148058D01*
X175631382Y-86181543D01*
X175572931Y-86180152D01*
X175476697Y-86154366D01*
X175476693Y-86154365D01*
X175476692Y-86154365D01*
X175476691Y-86154364D01*
X175476686Y-86154364D01*
X175250002Y-86134532D01*
X175249998Y-86134532D01*
X175023313Y-86154364D01*
X175023302Y-86154366D01*
X174803511Y-86213258D01*
X174803502Y-86213261D01*
X174597267Y-86309431D01*
X174597265Y-86309432D01*
X174410858Y-86439954D01*
X174249954Y-86600858D01*
X174119432Y-86787265D01*
X174119431Y-86787267D01*
X174023261Y-86993502D01*
X174023258Y-86993511D01*
X173964366Y-87213302D01*
X173964364Y-87213313D01*
X173944532Y-87439998D01*
X173944532Y-87440001D01*
X173964364Y-87666686D01*
X173964366Y-87666697D01*
X174023258Y-87886488D01*
X174023261Y-87886497D01*
X174119431Y-88092732D01*
X174119432Y-88092734D01*
X174249954Y-88279141D01*
X174410858Y-88440045D01*
X174410861Y-88440047D01*
X174597266Y-88570568D01*
X174803504Y-88666739D01*
X175023308Y-88725635D01*
X175185230Y-88739801D01*
X175249998Y-88745468D01*
X175250000Y-88745468D01*
X175250002Y-88745468D01*
X175306673Y-88740509D01*
X175476692Y-88725635D01*
X175696496Y-88666739D01*
X175902734Y-88570568D01*
X176089139Y-88440047D01*
X176250047Y-88279139D01*
X176380568Y-88092734D01*
X176476739Y-87886496D01*
X176485888Y-87852352D01*
X183449500Y-87852352D01*
X183450188Y-87856697D01*
X183481522Y-88054534D01*
X183544781Y-88249223D01*
X183637715Y-88431613D01*
X183758028Y-88597213D01*
X183902786Y-88741971D01*
X184057749Y-88854556D01*
X184068390Y-88862287D01*
X184159094Y-88908503D01*
X184250776Y-88955218D01*
X184250778Y-88955218D01*
X184250781Y-88955220D01*
X184355137Y-88989127D01*
X184445465Y-89018477D01*
X184546557Y-89034488D01*
X184647648Y-89050500D01*
X184647649Y-89050500D01*
X184852351Y-89050500D01*
X184852352Y-89050500D01*
X185054534Y-89018477D01*
X185249219Y-88955220D01*
X185431610Y-88862287D01*
X185537116Y-88785633D01*
X185597213Y-88741971D01*
X185597215Y-88741968D01*
X185597219Y-88741966D01*
X185741966Y-88597219D01*
X185741968Y-88597215D01*
X185741971Y-88597213D01*
X185835019Y-88469141D01*
X185862287Y-88431610D01*
X185955220Y-88249219D01*
X186018477Y-88054534D01*
X186050500Y-87852352D01*
X186050500Y-87647648D01*
X186027115Y-87500001D01*
X186018477Y-87445465D01*
X185962539Y-87273308D01*
X185955220Y-87250781D01*
X185955218Y-87250778D01*
X185955218Y-87250776D01*
X185905552Y-87153302D01*
X185862287Y-87068390D01*
X185826752Y-87019480D01*
X185741971Y-86902786D01*
X185597213Y-86758028D01*
X185431613Y-86637715D01*
X185431612Y-86637714D01*
X185431610Y-86637713D01*
X185359278Y-86600858D01*
X185249223Y-86544781D01*
X185054534Y-86481522D01*
X184879995Y-86453878D01*
X184852352Y-86449500D01*
X184647648Y-86449500D01*
X184623329Y-86453351D01*
X184445465Y-86481522D01*
X184250776Y-86544781D01*
X184068386Y-86637715D01*
X183902786Y-86758028D01*
X183758028Y-86902786D01*
X183637715Y-87068386D01*
X183544781Y-87250776D01*
X183481522Y-87445465D01*
X183452295Y-87630000D01*
X183449500Y-87647648D01*
X183449500Y-87852352D01*
X176485888Y-87852352D01*
X176535635Y-87666692D01*
X176555468Y-87440000D01*
X176550218Y-87379998D01*
X176549801Y-87375230D01*
X176535635Y-87213308D01*
X176509847Y-87117066D01*
X176511510Y-87047217D01*
X176541939Y-86997294D01*
X177402416Y-86136819D01*
X177463739Y-86103334D01*
X177490097Y-86100500D01*
X180663331Y-86100500D01*
X180663347Y-86100501D01*
X180670943Y-86100501D01*
X180829054Y-86100501D01*
X180829057Y-86100501D01*
X180981785Y-86059577D01*
X181053424Y-86018216D01*
X181118716Y-85980520D01*
X181230520Y-85868716D01*
X181230520Y-85868714D01*
X181240724Y-85858511D01*
X181240727Y-85858506D01*
X182212416Y-84886819D01*
X182273739Y-84853334D01*
X182300097Y-84850500D01*
X182413331Y-84850500D01*
X182413347Y-84850501D01*
X182420943Y-84850501D01*
X182579054Y-84850501D01*
X182579057Y-84850501D01*
X182731785Y-84809577D01*
X182801233Y-84769481D01*
X182868716Y-84730520D01*
X182980520Y-84618716D01*
X182980520Y-84618714D01*
X182990724Y-84608511D01*
X182990727Y-84608506D01*
X185851096Y-81748139D01*
X185912417Y-81714656D01*
X185982109Y-81719640D01*
X186038042Y-81761512D01*
X186042582Y-81767998D01*
X186120817Y-81887745D01*
X186275206Y-82055456D01*
X186275208Y-82055458D01*
X186275212Y-82055461D01*
X186446423Y-82188720D01*
X186455094Y-82195469D01*
X186455096Y-82195470D01*
X186455099Y-82195472D01*
X186571646Y-82258543D01*
X186655574Y-82303963D01*
X186759570Y-82339665D01*
X186871173Y-82377979D01*
X186871175Y-82377979D01*
X186871177Y-82377980D01*
X187096023Y-82415500D01*
X187096024Y-82415500D01*
X187323976Y-82415500D01*
X187323977Y-82415500D01*
X187548823Y-82377980D01*
X187764426Y-82303963D01*
X187964906Y-82195469D01*
X188144794Y-82055456D01*
X188299183Y-81887745D01*
X188423862Y-81696909D01*
X188515430Y-81488155D01*
X188571390Y-81267176D01*
X188578146Y-81185645D01*
X188590214Y-81040006D01*
X188590214Y-81039993D01*
X188571391Y-80812831D01*
X188571389Y-80812820D01*
X188515430Y-80591844D01*
X188423862Y-80383091D01*
X188299185Y-80192257D01*
X188146168Y-80026037D01*
X188144794Y-80024544D01*
X188144793Y-80024543D01*
X188144791Y-80024541D01*
X188144787Y-80024538D01*
X187964909Y-79884533D01*
X187964900Y-79884527D01*
X187764432Y-79776040D01*
X187764429Y-79776039D01*
X187764426Y-79776037D01*
X187764420Y-79776035D01*
X187764418Y-79776034D01*
X187548826Y-79702020D01*
X187374100Y-79672864D01*
X187323977Y-79664500D01*
X187096023Y-79664500D01*
X187073952Y-79668183D01*
X186871173Y-79702020D01*
X186655581Y-79776034D01*
X186655567Y-79776040D01*
X186455099Y-79884527D01*
X186455090Y-79884533D01*
X186275212Y-80024538D01*
X186275208Y-80024541D01*
X186120817Y-80192255D01*
X185995987Y-80383322D01*
X185942840Y-80428678D01*
X185892178Y-80439500D01*
X185796670Y-80439500D01*
X185796654Y-80439499D01*
X185789058Y-80439499D01*
X185630943Y-80439499D01*
X185554579Y-80459961D01*
X185478214Y-80480423D01*
X185478209Y-80480426D01*
X185341290Y-80559475D01*
X185341282Y-80559481D01*
X182287584Y-83613181D01*
X182226261Y-83646666D01*
X182199903Y-83649500D01*
X182086669Y-83649500D01*
X182086653Y-83649499D01*
X182079057Y-83649499D01*
X181920943Y-83649499D01*
X181806397Y-83680192D01*
X181768214Y-83690423D01*
X181722557Y-83716784D01*
X181722556Y-83716784D01*
X181631287Y-83769477D01*
X181631284Y-83769480D01*
X181519480Y-83881284D01*
X181519478Y-83881286D01*
X181019475Y-84381290D01*
X180537584Y-84863181D01*
X180476261Y-84896666D01*
X180449903Y-84899500D01*
X177499097Y-84899500D01*
X177432058Y-84879815D01*
X177386303Y-84827011D01*
X177376359Y-84757853D01*
X177405384Y-84694297D01*
X177411416Y-84687819D01*
X177439130Y-84660105D01*
X177690520Y-84408716D01*
X177769577Y-84271784D01*
X177810501Y-84119057D01*
X177810501Y-83960942D01*
X177810501Y-83960940D01*
X177810501Y-83953347D01*
X177810500Y-83953329D01*
X177810500Y-82352917D01*
X177830185Y-82285878D01*
X177875483Y-82243862D01*
X177929429Y-82214668D01*
X177964906Y-82195469D01*
X178144794Y-82055456D01*
X178299183Y-81887745D01*
X178423862Y-81696909D01*
X178515430Y-81488155D01*
X178571390Y-81267176D01*
X178578146Y-81185645D01*
X178590214Y-81040006D01*
X178590214Y-81039993D01*
X178571391Y-80812831D01*
X178571389Y-80812820D01*
X178515430Y-80591844D01*
X178423862Y-80383091D01*
X178299185Y-80192257D01*
X178146168Y-80026037D01*
X178144794Y-80024544D01*
X178144793Y-80024543D01*
X178144791Y-80024541D01*
X178144787Y-80024538D01*
X177964909Y-79884533D01*
X177964900Y-79884527D01*
X177764432Y-79776040D01*
X177764429Y-79776039D01*
X177764426Y-79776037D01*
X177764420Y-79776035D01*
X177764418Y-79776034D01*
X177548826Y-79702020D01*
X177374100Y-79672864D01*
X177323977Y-79664500D01*
X177096023Y-79664500D01*
X177073952Y-79668183D01*
X176871173Y-79702020D01*
X176655581Y-79776034D01*
X176655567Y-79776040D01*
X176455099Y-79884527D01*
X176455090Y-79884533D01*
X176275212Y-80024538D01*
X176275208Y-80024541D01*
X176120814Y-80192257D01*
X175996137Y-80383091D01*
X175904569Y-80591844D01*
X175848610Y-80812820D01*
X175848608Y-80812831D01*
X175829786Y-81039993D01*
X175829786Y-81040006D01*
X175848608Y-81267168D01*
X175848610Y-81267179D01*
X175904569Y-81488155D01*
X175996137Y-81696908D01*
X176120814Y-81887742D01*
X176275208Y-82055458D01*
X176275212Y-82055461D01*
X176446423Y-82188720D01*
X176455094Y-82195469D01*
X176455096Y-82195470D01*
X176455099Y-82195472D01*
X176544517Y-82243862D01*
X176594108Y-82293081D01*
X176609500Y-82352917D01*
X176609500Y-83739902D01*
X176589815Y-83806941D01*
X176573181Y-83827583D01*
X176287584Y-84113181D01*
X176226261Y-84146666D01*
X176199903Y-84149500D01*
X169420943Y-84149500D01*
X169268216Y-84190423D01*
X169268209Y-84190426D01*
X169131290Y-84269475D01*
X169131282Y-84269481D01*
X169019481Y-84381282D01*
X169019475Y-84381290D01*
X168940426Y-84518209D01*
X168940423Y-84518216D01*
X168899500Y-84670943D01*
X168899500Y-84949902D01*
X168879815Y-85016941D01*
X168863181Y-85037583D01*
X168769481Y-85131282D01*
X168769479Y-85131285D01*
X168719361Y-85218094D01*
X168719359Y-85218096D01*
X168690425Y-85268209D01*
X168690424Y-85268210D01*
X168690084Y-85269480D01*
X168649499Y-85420943D01*
X168649499Y-85420944D01*
X168649499Y-85420945D01*
X168649499Y-85589046D01*
X168649500Y-85589059D01*
X168649500Y-86268306D01*
X168629815Y-86335345D01*
X168596623Y-86369881D01*
X168410859Y-86499953D01*
X168249954Y-86660858D01*
X168119432Y-86847265D01*
X168119431Y-86847267D01*
X168023261Y-87053502D01*
X168023258Y-87053511D01*
X167964366Y-87273302D01*
X167964364Y-87273313D01*
X167944532Y-87499998D01*
X167944532Y-87500001D01*
X164544969Y-87500001D01*
X164555468Y-87380000D01*
X164535635Y-87153308D01*
X164476739Y-86933504D01*
X164380568Y-86727266D01*
X164250047Y-86540861D01*
X164250045Y-86540858D01*
X164089140Y-86379953D01*
X163903377Y-86249881D01*
X163859752Y-86195304D01*
X163850500Y-86148306D01*
X163850500Y-85589060D01*
X163850501Y-85589047D01*
X163850501Y-85420944D01*
X163849904Y-85418716D01*
X163809577Y-85268216D01*
X163787814Y-85230521D01*
X163730524Y-85131290D01*
X163730521Y-85131286D01*
X163730520Y-85131284D01*
X163686916Y-85087680D01*
X163653431Y-85026357D01*
X163658415Y-84956665D01*
X163686916Y-84912318D01*
X166776777Y-81822458D01*
X166838100Y-81788973D01*
X166864458Y-81786139D01*
X166932178Y-81786139D01*
X166999217Y-81805824D01*
X167035987Y-81842317D01*
X167036138Y-81842548D01*
X167160817Y-82033384D01*
X167297183Y-82181517D01*
X167315208Y-82201097D01*
X167315212Y-82201100D01*
X167415335Y-82279029D01*
X167495094Y-82341108D01*
X167495096Y-82341109D01*
X167495099Y-82341111D01*
X167584517Y-82389501D01*
X167695574Y-82449602D01*
X167807529Y-82488036D01*
X167911173Y-82523618D01*
X167911175Y-82523618D01*
X167911177Y-82523619D01*
X168136023Y-82561139D01*
X168136024Y-82561139D01*
X168363976Y-82561139D01*
X168363977Y-82561139D01*
X168588823Y-82523619D01*
X168804426Y-82449602D01*
X169004906Y-82341108D01*
X169184794Y-82201095D01*
X169339183Y-82033384D01*
X169463862Y-81842548D01*
X169555430Y-81633794D01*
X169611390Y-81412815D01*
X169621567Y-81290000D01*
X169630214Y-81185645D01*
X169630214Y-81185632D01*
X169611391Y-80958470D01*
X169611389Y-80958459D01*
X169555430Y-80737483D01*
X169463862Y-80528730D01*
X169339185Y-80337896D01*
X169277427Y-80270809D01*
X169184794Y-80170183D01*
X169184793Y-80170182D01*
X169184791Y-80170180D01*
X169184787Y-80170177D01*
X169004909Y-80030172D01*
X169004900Y-80030166D01*
X168804432Y-79921679D01*
X168804429Y-79921678D01*
X168804426Y-79921676D01*
X168804420Y-79921674D01*
X168804418Y-79921673D01*
X168588826Y-79847659D01*
X168415838Y-79818793D01*
X168363977Y-79810139D01*
X168136023Y-79810139D01*
X168091053Y-79817643D01*
X167911173Y-79847659D01*
X167695581Y-79921673D01*
X167695567Y-79921679D01*
X167495099Y-80030166D01*
X167495090Y-80030172D01*
X167315212Y-80170177D01*
X167315208Y-80170180D01*
X167160817Y-80337894D01*
X167035987Y-80528961D01*
X166982840Y-80574317D01*
X166932178Y-80585139D01*
X166485304Y-80585139D01*
X166332578Y-80626061D01*
X166332573Y-80626063D01*
X166326838Y-80629375D01*
X166326836Y-80629376D01*
X166195648Y-80705116D01*
X166195643Y-80705120D01*
X166083839Y-80816925D01*
X162381284Y-84519481D01*
X162269483Y-84631281D01*
X162269481Y-84631284D01*
X162190423Y-84768214D01*
X162190084Y-84769479D01*
X162149499Y-84920943D01*
X162149499Y-84920945D01*
X162149499Y-85079054D01*
X162149498Y-85079054D01*
X162165573Y-85139046D01*
X162190423Y-85231785D01*
X162269481Y-85368716D01*
X162269483Y-85368718D01*
X162613181Y-85712416D01*
X162646666Y-85773739D01*
X162649500Y-85800097D01*
X162649500Y-86148306D01*
X162629815Y-86215345D01*
X162596623Y-86249881D01*
X162410859Y-86379953D01*
X162249954Y-86540858D01*
X162119432Y-86727265D01*
X162119431Y-86727267D01*
X162023261Y-86933502D01*
X162023258Y-86933511D01*
X161964366Y-87153302D01*
X161964364Y-87153313D01*
X161944532Y-87379998D01*
X161944532Y-87380001D01*
X158050218Y-87380001D01*
X158050218Y-87379998D01*
X158049801Y-87375230D01*
X158035635Y-87213308D01*
X157976739Y-86993504D01*
X157880568Y-86787266D01*
X157750047Y-86600861D01*
X157750045Y-86600858D01*
X157589140Y-86439953D01*
X157403377Y-86309881D01*
X157359752Y-86255304D01*
X157350500Y-86208306D01*
X157350500Y-85920945D01*
X157350500Y-85920943D01*
X157309577Y-85768216D01*
X157309573Y-85768209D01*
X157230524Y-85631290D01*
X157230518Y-85631282D01*
X157186916Y-85587680D01*
X157153431Y-85526357D01*
X157158415Y-85456665D01*
X157186914Y-85412320D01*
X159358506Y-83240727D01*
X159358511Y-83240724D01*
X159368714Y-83230520D01*
X159368716Y-83230520D01*
X159480520Y-83118716D01*
X159484839Y-83111235D01*
X159546472Y-83004484D01*
X159546473Y-83004482D01*
X159551790Y-82995271D01*
X159559577Y-82981785D01*
X159600501Y-82829057D01*
X159600501Y-82670943D01*
X159600501Y-82663348D01*
X159600500Y-82663330D01*
X159600500Y-82498556D01*
X159620185Y-82431517D01*
X159665483Y-82389501D01*
X159697052Y-82372417D01*
X159754906Y-82341108D01*
X159934794Y-82201095D01*
X160089183Y-82033384D01*
X160213862Y-81842548D01*
X160305430Y-81633794D01*
X160361390Y-81412815D01*
X160371567Y-81290000D01*
X160380214Y-81185645D01*
X160380214Y-81185632D01*
X160361391Y-80958470D01*
X160361389Y-80958459D01*
X160305430Y-80737483D01*
X160213862Y-80528730D01*
X160089185Y-80337896D01*
X160027427Y-80270809D01*
X159934794Y-80170183D01*
X159934793Y-80170182D01*
X159934791Y-80170180D01*
X159934787Y-80170177D01*
X159754909Y-80030172D01*
X159754900Y-80030166D01*
X159554432Y-79921679D01*
X159554429Y-79921678D01*
X159554426Y-79921676D01*
X159554420Y-79921674D01*
X159554418Y-79921673D01*
X159338826Y-79847659D01*
X159165838Y-79818793D01*
X159113977Y-79810139D01*
X158886023Y-79810139D01*
X158841053Y-79817643D01*
X158661173Y-79847659D01*
X158445581Y-79921673D01*
X158445567Y-79921679D01*
X158245099Y-80030166D01*
X158245090Y-80030172D01*
X158065212Y-80170177D01*
X158065208Y-80170180D01*
X157910814Y-80337896D01*
X157786137Y-80528730D01*
X157694569Y-80737483D01*
X157638610Y-80958459D01*
X157638608Y-80958470D01*
X157619786Y-81185632D01*
X157619786Y-81185645D01*
X157638608Y-81412807D01*
X157638610Y-81412818D01*
X157694569Y-81633794D01*
X157786137Y-81842547D01*
X157910814Y-82033381D01*
X158065208Y-82201097D01*
X158065212Y-82201100D01*
X158245090Y-82341105D01*
X158245094Y-82341108D01*
X158302948Y-82372417D01*
X158352538Y-82421637D01*
X158367646Y-82489854D01*
X158343475Y-82555409D01*
X158331611Y-82569153D01*
X156019481Y-84881282D01*
X156019477Y-84881287D01*
X155970847Y-84965519D01*
X155970846Y-84965518D01*
X155940424Y-85018211D01*
X155940423Y-85018215D01*
X155899499Y-85170943D01*
X155899499Y-85170945D01*
X155899499Y-85339046D01*
X155899500Y-85339059D01*
X155899500Y-85663330D01*
X155899499Y-85663348D01*
X155899499Y-85829054D01*
X155899498Y-85829054D01*
X155940424Y-85981789D01*
X155940425Y-85981790D01*
X155961455Y-86018214D01*
X155961456Y-86018216D01*
X156019475Y-86118709D01*
X156019481Y-86118717D01*
X156059192Y-86158428D01*
X156092677Y-86219751D01*
X156087693Y-86289443D01*
X156045821Y-86345376D01*
X156042635Y-86347684D01*
X155910856Y-86439956D01*
X155749954Y-86600858D01*
X155619432Y-86787265D01*
X155619431Y-86787267D01*
X155523261Y-86993502D01*
X155523258Y-86993511D01*
X155464366Y-87213302D01*
X155464364Y-87213313D01*
X155444532Y-87439998D01*
X155444532Y-87440001D01*
X152055468Y-87440001D01*
X152055468Y-87440000D01*
X152050218Y-87379998D01*
X152049801Y-87375230D01*
X152035635Y-87213308D01*
X151976739Y-86993504D01*
X151880568Y-86787266D01*
X151750047Y-86600861D01*
X151750045Y-86600858D01*
X151589140Y-86439953D01*
X151403377Y-86309881D01*
X151359752Y-86255304D01*
X151350500Y-86208306D01*
X151350500Y-84170945D01*
X151350500Y-84170943D01*
X151320660Y-84059577D01*
X151309577Y-84018215D01*
X151276510Y-83960942D01*
X151230520Y-83881284D01*
X151118716Y-83769480D01*
X151118715Y-83769479D01*
X151114385Y-83765149D01*
X151114374Y-83765139D01*
X150636819Y-83287584D01*
X150603334Y-83226261D01*
X150600500Y-83199903D01*
X150600500Y-82248556D01*
X150620185Y-82181517D01*
X150665483Y-82139501D01*
X150668728Y-82137745D01*
X150754906Y-82091108D01*
X150934794Y-81951095D01*
X151089183Y-81783384D01*
X151213862Y-81592548D01*
X151305430Y-81383794D01*
X151361390Y-81162815D01*
X151369675Y-81062831D01*
X151380214Y-80935645D01*
X151380214Y-80935632D01*
X151361391Y-80708470D01*
X151361389Y-80708459D01*
X151305430Y-80487483D01*
X151213862Y-80278730D01*
X151089185Y-80087896D01*
X150975528Y-79964432D01*
X150934794Y-79920183D01*
X150934793Y-79920182D01*
X150934791Y-79920180D01*
X150934787Y-79920177D01*
X150754909Y-79780172D01*
X150754900Y-79780166D01*
X150554432Y-79671679D01*
X150554429Y-79671678D01*
X150554426Y-79671676D01*
X150554420Y-79671674D01*
X150554418Y-79671673D01*
X150338826Y-79597659D01*
X150164100Y-79568503D01*
X150113977Y-79560139D01*
X149886023Y-79560139D01*
X149841053Y-79567643D01*
X149661173Y-79597659D01*
X149445581Y-79671673D01*
X149445567Y-79671679D01*
X149245099Y-79780166D01*
X149245090Y-79780172D01*
X149065212Y-79920177D01*
X149065208Y-79920180D01*
X148910814Y-80087896D01*
X148786137Y-80278730D01*
X148694569Y-80487483D01*
X148638610Y-80708459D01*
X148638608Y-80708470D01*
X148619786Y-80935632D01*
X148619786Y-80935645D01*
X142606568Y-80935645D01*
X142596391Y-80812831D01*
X142596389Y-80812820D01*
X142540430Y-80591844D01*
X142448862Y-80383091D01*
X142324185Y-80192257D01*
X142171168Y-80026037D01*
X142169794Y-80024544D01*
X142169793Y-80024543D01*
X142169791Y-80024541D01*
X142169787Y-80024538D01*
X141989909Y-79884533D01*
X141989900Y-79884527D01*
X141789432Y-79776040D01*
X141789429Y-79776039D01*
X141789426Y-79776037D01*
X141789420Y-79776035D01*
X141789418Y-79776034D01*
X141573826Y-79702020D01*
X141399100Y-79672864D01*
X141348977Y-79664500D01*
X141121023Y-79664500D01*
X141098952Y-79668183D01*
X140896173Y-79702020D01*
X140680581Y-79776034D01*
X140680567Y-79776040D01*
X140480099Y-79884527D01*
X140480090Y-79884533D01*
X140300212Y-80024538D01*
X140300208Y-80024541D01*
X140145814Y-80192257D01*
X140021137Y-80383091D01*
X139929569Y-80591844D01*
X139873610Y-80812820D01*
X139873608Y-80812831D01*
X139854786Y-81039993D01*
X139854786Y-81040006D01*
X133365214Y-81040006D01*
X133365214Y-81039993D01*
X133346391Y-80812831D01*
X133346389Y-80812820D01*
X133290430Y-80591844D01*
X133198862Y-80383091D01*
X133074185Y-80192257D01*
X132921168Y-80026037D01*
X132919794Y-80024544D01*
X132919793Y-80024543D01*
X132919791Y-80024541D01*
X132919787Y-80024538D01*
X132739909Y-79884533D01*
X132739900Y-79884527D01*
X132539432Y-79776040D01*
X132539429Y-79776039D01*
X132539426Y-79776037D01*
X132539420Y-79776035D01*
X132539418Y-79776034D01*
X132323826Y-79702020D01*
X132149100Y-79672864D01*
X132098977Y-79664500D01*
X131871023Y-79664500D01*
X131848952Y-79668183D01*
X131646173Y-79702020D01*
X131430581Y-79776034D01*
X131430567Y-79776040D01*
X131230099Y-79884527D01*
X131230090Y-79884533D01*
X131050212Y-80024538D01*
X131050208Y-80024541D01*
X130895814Y-80192257D01*
X130771137Y-80383091D01*
X130679569Y-80591844D01*
X130623610Y-80812820D01*
X130623608Y-80812831D01*
X130604786Y-81039993D01*
X130604786Y-81040006D01*
X123865214Y-81040006D01*
X123865214Y-81039993D01*
X123846391Y-80812831D01*
X123846389Y-80812820D01*
X123790430Y-80591844D01*
X123698862Y-80383091D01*
X123574185Y-80192257D01*
X123421168Y-80026037D01*
X123419794Y-80024544D01*
X123419793Y-80024543D01*
X123419791Y-80024541D01*
X123419787Y-80024538D01*
X123239909Y-79884533D01*
X123239900Y-79884527D01*
X123039432Y-79776040D01*
X123039429Y-79776039D01*
X123039426Y-79776037D01*
X123039420Y-79776035D01*
X123039418Y-79776034D01*
X122823826Y-79702020D01*
X122649100Y-79672864D01*
X122598977Y-79664500D01*
X122371023Y-79664500D01*
X122348952Y-79668183D01*
X122146173Y-79702020D01*
X121930581Y-79776034D01*
X121930567Y-79776040D01*
X121730099Y-79884527D01*
X121730090Y-79884533D01*
X121550212Y-80024538D01*
X121550208Y-80024541D01*
X121395814Y-80192257D01*
X121271137Y-80383091D01*
X121179569Y-80591844D01*
X121123610Y-80812820D01*
X121123608Y-80812831D01*
X121104786Y-81039993D01*
X121104786Y-81040006D01*
X121123608Y-81267168D01*
X121123610Y-81267179D01*
X121179569Y-81488155D01*
X121271137Y-81696908D01*
X121395814Y-81887742D01*
X121550208Y-82055458D01*
X121550212Y-82055461D01*
X121721423Y-82188720D01*
X121730094Y-82195469D01*
X121730096Y-82195470D01*
X121730099Y-82195472D01*
X121846646Y-82258543D01*
X121930574Y-82303963D01*
X122034570Y-82339665D01*
X122146173Y-82377979D01*
X122146175Y-82377979D01*
X122146177Y-82377980D01*
X122371023Y-82415500D01*
X122371024Y-82415500D01*
X122598977Y-82415500D01*
X122823823Y-82377980D01*
X122862220Y-82364797D01*
X122932015Y-82361648D01*
X122990162Y-82394398D01*
X125048413Y-84452649D01*
X125081898Y-84513972D01*
X125076914Y-84583664D01*
X125035042Y-84639597D01*
X124969578Y-84664014D01*
X124928639Y-84660105D01*
X124915385Y-84656553D01*
X124889057Y-84649499D01*
X124730943Y-84649499D01*
X124723347Y-84649499D01*
X124723331Y-84649500D01*
X124550098Y-84649500D01*
X124483059Y-84629815D01*
X124462417Y-84613181D01*
X124368717Y-84519481D01*
X124368716Y-84519480D01*
X124281904Y-84469360D01*
X124281904Y-84469359D01*
X124281900Y-84469358D01*
X124231785Y-84440423D01*
X124079057Y-84399499D01*
X123920943Y-84399499D01*
X123913347Y-84399499D01*
X123913331Y-84399500D01*
X114300097Y-84399500D01*
X114233058Y-84379815D01*
X114212416Y-84363181D01*
X113371819Y-83522584D01*
X113338334Y-83461261D01*
X113335500Y-83434903D01*
X113335500Y-82602917D01*
X113355185Y-82535878D01*
X113400483Y-82493862D01*
X113482265Y-82449604D01*
X113489906Y-82445469D01*
X113669794Y-82305456D01*
X113824183Y-82137745D01*
X113948862Y-81946909D01*
X114040430Y-81738155D01*
X114096390Y-81517176D01*
X114098795Y-81488155D01*
X114115214Y-81290006D01*
X114115214Y-81289993D01*
X114096391Y-81062831D01*
X114096389Y-81062820D01*
X114040430Y-80841844D01*
X113948862Y-80633091D01*
X113824185Y-80442257D01*
X113669791Y-80274541D01*
X113669787Y-80274538D01*
X113489909Y-80134533D01*
X113489900Y-80134527D01*
X113289432Y-80026040D01*
X113289429Y-80026039D01*
X113289426Y-80026037D01*
X113289420Y-80026035D01*
X113289418Y-80026034D01*
X113073826Y-79952020D01*
X112905188Y-79923880D01*
X112848977Y-79914500D01*
X112621023Y-79914500D01*
X112586967Y-79920183D01*
X112396173Y-79952020D01*
X112180581Y-80026034D01*
X112180567Y-80026040D01*
X111980099Y-80134527D01*
X111980090Y-80134533D01*
X111800212Y-80274538D01*
X111800208Y-80274541D01*
X111645814Y-80442257D01*
X111521137Y-80633091D01*
X111429569Y-80841844D01*
X111373610Y-81062820D01*
X111373608Y-81062831D01*
X111354786Y-81289993D01*
X111354786Y-81290006D01*
X106132681Y-81290006D01*
X106132681Y-79935138D01*
X106152366Y-79868099D01*
X106205170Y-79822344D01*
X106256681Y-79811138D01*
X106422871Y-79811138D01*
X106422872Y-79811138D01*
X106482483Y-79804730D01*
X106617331Y-79754435D01*
X106732546Y-79668185D01*
X106818796Y-79552970D01*
X106845086Y-79482483D01*
X106864226Y-79431167D01*
X106906097Y-79375233D01*
X106971561Y-79350816D01*
X106980408Y-79350500D01*
X113775501Y-79350500D01*
X113842540Y-79370185D01*
X113888295Y-79422989D01*
X113899501Y-79474500D01*
X113899501Y-79672876D01*
X113905908Y-79732483D01*
X113956202Y-79867328D01*
X113956206Y-79867335D01*
X114042452Y-79982544D01*
X114042455Y-79982547D01*
X114157664Y-80068793D01*
X114157671Y-80068797D01*
X114292517Y-80119091D01*
X114292516Y-80119091D01*
X114299444Y-80119835D01*
X114352127Y-80125500D01*
X116197872Y-80125499D01*
X116257483Y-80119091D01*
X116392331Y-80068796D01*
X116507546Y-79982546D01*
X116593796Y-79867331D01*
X116644091Y-79732483D01*
X116650500Y-79672873D01*
X116650500Y-79224500D01*
X116670185Y-79157461D01*
X116722989Y-79111706D01*
X116774500Y-79100500D01*
X123525501Y-79100500D01*
X123592540Y-79120185D01*
X123638295Y-79172989D01*
X123649501Y-79224500D01*
X123649501Y-79422876D01*
X123655908Y-79482483D01*
X123706202Y-79617328D01*
X123706206Y-79617335D01*
X123792452Y-79732544D01*
X123792455Y-79732547D01*
X123907664Y-79818793D01*
X123907671Y-79818797D01*
X124042517Y-79869091D01*
X124042516Y-79869091D01*
X124049444Y-79869835D01*
X124102127Y-79875500D01*
X125947872Y-79875499D01*
X126007483Y-79869091D01*
X126142331Y-79818796D01*
X126257546Y-79732546D01*
X126343796Y-79617331D01*
X126394091Y-79482483D01*
X126400500Y-79422873D01*
X126400500Y-79224500D01*
X126420185Y-79157461D01*
X126472989Y-79111706D01*
X126524500Y-79100500D01*
X133025501Y-79100500D01*
X133092540Y-79120185D01*
X133138295Y-79172989D01*
X133149501Y-79224500D01*
X133149501Y-79422876D01*
X133155908Y-79482483D01*
X133206202Y-79617328D01*
X133206206Y-79617335D01*
X133292452Y-79732544D01*
X133292455Y-79732547D01*
X133407664Y-79818793D01*
X133407671Y-79818797D01*
X133542517Y-79869091D01*
X133542516Y-79869091D01*
X133549444Y-79869835D01*
X133602127Y-79875500D01*
X135447872Y-79875499D01*
X135507483Y-79869091D01*
X135642331Y-79818796D01*
X135757546Y-79732546D01*
X135843796Y-79617331D01*
X135894091Y-79482483D01*
X135900500Y-79422873D01*
X135900500Y-79224500D01*
X135920185Y-79157461D01*
X135972989Y-79111706D01*
X136024500Y-79100500D01*
X142275501Y-79100500D01*
X142342540Y-79120185D01*
X142388295Y-79172989D01*
X142399501Y-79224500D01*
X142399501Y-79422876D01*
X142405908Y-79482483D01*
X142456202Y-79617328D01*
X142456206Y-79617335D01*
X142542452Y-79732544D01*
X142542455Y-79732547D01*
X142657664Y-79818793D01*
X142657671Y-79818797D01*
X142792517Y-79869091D01*
X142792516Y-79869091D01*
X142799444Y-79869835D01*
X142852127Y-79875500D01*
X144697872Y-79875499D01*
X144757483Y-79869091D01*
X144892331Y-79818796D01*
X145007546Y-79732546D01*
X145093796Y-79617331D01*
X145144091Y-79482483D01*
X145150500Y-79422873D01*
X145150500Y-79120139D01*
X145170185Y-79053100D01*
X145222989Y-79007345D01*
X145274500Y-78996139D01*
X151040501Y-78996139D01*
X151107540Y-79015824D01*
X151153295Y-79068628D01*
X151164501Y-79120139D01*
X151164501Y-79318515D01*
X151170908Y-79378122D01*
X151221202Y-79512967D01*
X151221206Y-79512974D01*
X151307452Y-79628183D01*
X151307455Y-79628186D01*
X151422664Y-79714432D01*
X151422671Y-79714436D01*
X151557517Y-79764730D01*
X151557516Y-79764730D01*
X151564444Y-79765474D01*
X151617127Y-79771139D01*
X153462872Y-79771138D01*
X153522483Y-79764730D01*
X153657331Y-79714435D01*
X153772546Y-79628185D01*
X153858796Y-79512970D01*
X153909091Y-79378122D01*
X153911199Y-79358515D01*
X153911375Y-79356882D01*
X153938114Y-79292331D01*
X153995507Y-79252484D01*
X154034664Y-79246139D01*
X160040501Y-79246139D01*
X160107540Y-79265824D01*
X160153295Y-79318628D01*
X160164501Y-79370139D01*
X160164501Y-79568515D01*
X160170908Y-79628122D01*
X160221202Y-79762967D01*
X160221206Y-79762974D01*
X160307452Y-79878183D01*
X160307455Y-79878186D01*
X160422664Y-79964432D01*
X160422671Y-79964436D01*
X160557517Y-80014730D01*
X160557516Y-80014730D01*
X160564444Y-80015474D01*
X160617127Y-80021139D01*
X162462872Y-80021138D01*
X162522483Y-80014730D01*
X162657331Y-79964435D01*
X162772546Y-79878185D01*
X162858796Y-79762970D01*
X162909091Y-79628122D01*
X162915500Y-79568512D01*
X162915500Y-79370139D01*
X162935185Y-79303100D01*
X162987989Y-79257345D01*
X163039500Y-79246139D01*
X169290501Y-79246139D01*
X169357540Y-79265824D01*
X169403295Y-79318628D01*
X169414501Y-79370139D01*
X169414501Y-79568515D01*
X169420908Y-79628122D01*
X169471202Y-79762967D01*
X169471206Y-79762974D01*
X169557452Y-79878183D01*
X169557455Y-79878186D01*
X169672664Y-79964432D01*
X169672671Y-79964436D01*
X169807517Y-80014730D01*
X169807516Y-80014730D01*
X169814444Y-80015474D01*
X169867127Y-80021139D01*
X171712872Y-80021138D01*
X171772483Y-80014730D01*
X171907331Y-79964435D01*
X172022546Y-79878185D01*
X172108796Y-79762970D01*
X172159091Y-79628122D01*
X172165500Y-79568512D01*
X172165500Y-79370139D01*
X172185185Y-79303100D01*
X172237989Y-79257345D01*
X172289500Y-79246139D01*
X178250501Y-79246139D01*
X178317540Y-79265824D01*
X178363295Y-79318628D01*
X178374501Y-79370139D01*
X178374501Y-79422876D01*
X178380908Y-79482483D01*
X178431202Y-79617328D01*
X178431206Y-79617335D01*
X178517452Y-79732544D01*
X178517455Y-79732547D01*
X178632664Y-79818793D01*
X178632671Y-79818797D01*
X178767517Y-79869091D01*
X178767516Y-79869091D01*
X178774444Y-79869835D01*
X178827127Y-79875500D01*
X180672872Y-79875499D01*
X180732483Y-79869091D01*
X180867331Y-79818796D01*
X180982546Y-79732546D01*
X181068796Y-79617331D01*
X181119091Y-79482483D01*
X181125500Y-79422873D01*
X181125500Y-79224500D01*
X181145185Y-79157461D01*
X181197989Y-79111706D01*
X181249500Y-79100500D01*
X188250501Y-79100500D01*
X188317540Y-79120185D01*
X188363295Y-79172989D01*
X188374501Y-79224500D01*
X188374501Y-79422876D01*
X188380908Y-79482483D01*
X188431202Y-79617328D01*
X188431206Y-79617335D01*
X188517452Y-79732544D01*
X188517455Y-79732547D01*
X188632664Y-79818793D01*
X188632671Y-79818797D01*
X188767517Y-79869091D01*
X188767516Y-79869091D01*
X188774444Y-79869835D01*
X188827127Y-79875500D01*
X190672872Y-79875499D01*
X190732483Y-79869091D01*
X190867331Y-79818796D01*
X190982546Y-79732546D01*
X191068796Y-79617331D01*
X191119091Y-79482483D01*
X191125500Y-79422873D01*
X191125499Y-77577128D01*
X191119091Y-77517517D01*
X191117319Y-77512767D01*
X191068797Y-77382671D01*
X191068793Y-77382664D01*
X190982547Y-77267455D01*
X190982544Y-77267452D01*
X190867335Y-77181206D01*
X190867328Y-77181202D01*
X190732482Y-77130908D01*
X190732483Y-77130908D01*
X190672883Y-77124501D01*
X190672881Y-77124500D01*
X190672873Y-77124500D01*
X190672864Y-77124500D01*
X188827129Y-77124500D01*
X188827123Y-77124501D01*
X188767516Y-77130908D01*
X188632671Y-77181202D01*
X188632664Y-77181206D01*
X188517455Y-77267452D01*
X188517452Y-77267455D01*
X188431206Y-77382664D01*
X188431202Y-77382671D01*
X188380908Y-77517517D01*
X188374501Y-77577116D01*
X188374501Y-77577123D01*
X188374500Y-77577135D01*
X188374500Y-77775500D01*
X188354815Y-77842539D01*
X188302011Y-77888294D01*
X188250500Y-77899500D01*
X181249499Y-77899500D01*
X181182460Y-77879815D01*
X181136705Y-77827011D01*
X181125499Y-77775500D01*
X181125499Y-77577129D01*
X181125498Y-77577123D01*
X181125497Y-77577116D01*
X181119091Y-77517517D01*
X181117319Y-77512767D01*
X181068797Y-77382671D01*
X181068793Y-77382664D01*
X180982547Y-77267455D01*
X180982544Y-77267452D01*
X180867335Y-77181206D01*
X180867328Y-77181202D01*
X180732482Y-77130908D01*
X180732483Y-77130908D01*
X180672883Y-77124501D01*
X180672881Y-77124500D01*
X180672873Y-77124500D01*
X180672864Y-77124500D01*
X178827129Y-77124500D01*
X178827123Y-77124501D01*
X178767516Y-77130908D01*
X178632671Y-77181202D01*
X178632664Y-77181206D01*
X178517455Y-77267452D01*
X178517452Y-77267455D01*
X178431206Y-77382664D01*
X178431202Y-77382671D01*
X178380908Y-77517517D01*
X178374501Y-77577116D01*
X178374501Y-77577123D01*
X178374500Y-77577135D01*
X178374500Y-77921139D01*
X178354815Y-77988178D01*
X178302011Y-78033933D01*
X178250500Y-78045139D01*
X172289499Y-78045139D01*
X172222460Y-78025454D01*
X172176705Y-77972650D01*
X172165499Y-77921139D01*
X172165499Y-77722768D01*
X172165498Y-77722762D01*
X172165497Y-77722755D01*
X172159091Y-77663156D01*
X172147718Y-77632664D01*
X172108797Y-77528310D01*
X172108793Y-77528303D01*
X172022547Y-77413094D01*
X172022544Y-77413091D01*
X171907335Y-77326845D01*
X171907328Y-77326841D01*
X171772482Y-77276547D01*
X171772483Y-77276547D01*
X171712883Y-77270140D01*
X171712881Y-77270139D01*
X171712873Y-77270139D01*
X171712864Y-77270139D01*
X169867129Y-77270139D01*
X169867123Y-77270140D01*
X169807516Y-77276547D01*
X169672671Y-77326841D01*
X169672664Y-77326845D01*
X169557455Y-77413091D01*
X169557452Y-77413094D01*
X169471206Y-77528303D01*
X169471202Y-77528310D01*
X169420908Y-77663156D01*
X169414512Y-77722650D01*
X169414501Y-77722762D01*
X169414500Y-77722774D01*
X169414500Y-77921139D01*
X169394815Y-77988178D01*
X169342011Y-78033933D01*
X169290500Y-78045139D01*
X163039499Y-78045139D01*
X162972460Y-78025454D01*
X162926705Y-77972650D01*
X162915499Y-77921139D01*
X162915499Y-77722768D01*
X162915498Y-77722762D01*
X162915497Y-77722755D01*
X162909091Y-77663156D01*
X162897718Y-77632664D01*
X162858797Y-77528310D01*
X162858793Y-77528303D01*
X162772547Y-77413094D01*
X162772544Y-77413091D01*
X162657335Y-77326845D01*
X162657328Y-77326841D01*
X162522482Y-77276547D01*
X162522483Y-77276547D01*
X162462883Y-77270140D01*
X162462881Y-77270139D01*
X162462873Y-77270139D01*
X162462864Y-77270139D01*
X160617129Y-77270139D01*
X160617123Y-77270140D01*
X160557516Y-77276547D01*
X160422671Y-77326841D01*
X160422664Y-77326845D01*
X160307455Y-77413091D01*
X160307452Y-77413094D01*
X160221206Y-77528303D01*
X160221202Y-77528310D01*
X160170908Y-77663156D01*
X160164512Y-77722650D01*
X160164501Y-77722762D01*
X160164500Y-77722774D01*
X160164500Y-77921139D01*
X160144815Y-77988178D01*
X160092011Y-78033933D01*
X160040500Y-78045139D01*
X154039499Y-78045139D01*
X153972460Y-78025454D01*
X153926705Y-77972650D01*
X153915499Y-77921139D01*
X153915499Y-77472768D01*
X153915498Y-77472762D01*
X153915497Y-77472755D01*
X153909091Y-77413156D01*
X153897718Y-77382664D01*
X153858797Y-77278310D01*
X153858793Y-77278303D01*
X153772547Y-77163094D01*
X153772544Y-77163091D01*
X153657335Y-77076845D01*
X153657328Y-77076841D01*
X153522482Y-77026547D01*
X153522483Y-77026547D01*
X153462883Y-77020140D01*
X153462881Y-77020139D01*
X153462873Y-77020139D01*
X153462864Y-77020139D01*
X151617129Y-77020139D01*
X151617123Y-77020140D01*
X151557516Y-77026547D01*
X151422671Y-77076841D01*
X151422664Y-77076845D01*
X151307455Y-77163091D01*
X151307452Y-77163094D01*
X151221206Y-77278303D01*
X151221202Y-77278310D01*
X151170908Y-77413156D01*
X151168968Y-77431206D01*
X151164501Y-77472762D01*
X151164500Y-77472774D01*
X151164500Y-77671139D01*
X151144815Y-77738178D01*
X151092011Y-77783933D01*
X151040500Y-77795139D01*
X145274499Y-77795139D01*
X145207460Y-77775454D01*
X145161705Y-77722650D01*
X145150499Y-77671139D01*
X145150499Y-77577129D01*
X145150498Y-77577123D01*
X145150497Y-77577116D01*
X145144091Y-77517517D01*
X145142319Y-77512767D01*
X145093797Y-77382671D01*
X145093793Y-77382664D01*
X145007547Y-77267455D01*
X145007544Y-77267452D01*
X144892335Y-77181206D01*
X144892328Y-77181202D01*
X144757482Y-77130908D01*
X144757483Y-77130908D01*
X144697883Y-77124501D01*
X144697881Y-77124500D01*
X144697873Y-77124500D01*
X144697864Y-77124500D01*
X142852129Y-77124500D01*
X142852123Y-77124501D01*
X142792516Y-77130908D01*
X142657671Y-77181202D01*
X142657664Y-77181206D01*
X142542455Y-77267452D01*
X142542452Y-77267455D01*
X142456206Y-77382664D01*
X142456202Y-77382671D01*
X142405908Y-77517517D01*
X142399501Y-77577116D01*
X142399501Y-77577123D01*
X142399500Y-77577135D01*
X142399500Y-77775500D01*
X142379815Y-77842539D01*
X142327011Y-77888294D01*
X142275500Y-77899500D01*
X136024499Y-77899500D01*
X135957460Y-77879815D01*
X135911705Y-77827011D01*
X135900499Y-77775500D01*
X135900499Y-77577129D01*
X135900498Y-77577123D01*
X135900497Y-77577116D01*
X135894091Y-77517517D01*
X135892319Y-77512767D01*
X135843797Y-77382671D01*
X135843793Y-77382664D01*
X135757547Y-77267455D01*
X135757544Y-77267452D01*
X135642335Y-77181206D01*
X135642328Y-77181202D01*
X135507482Y-77130908D01*
X135507483Y-77130908D01*
X135447883Y-77124501D01*
X135447881Y-77124500D01*
X135447873Y-77124500D01*
X135447864Y-77124500D01*
X133602129Y-77124500D01*
X133602123Y-77124501D01*
X133542516Y-77130908D01*
X133407671Y-77181202D01*
X133407664Y-77181206D01*
X133292455Y-77267452D01*
X133292452Y-77267455D01*
X133206206Y-77382664D01*
X133206202Y-77382671D01*
X133155908Y-77517517D01*
X133149501Y-77577116D01*
X133149501Y-77577123D01*
X133149500Y-77577135D01*
X133149500Y-77775500D01*
X133129815Y-77842539D01*
X133077011Y-77888294D01*
X133025500Y-77899500D01*
X126524499Y-77899500D01*
X126457460Y-77879815D01*
X126411705Y-77827011D01*
X126400499Y-77775500D01*
X126400499Y-77577129D01*
X126400498Y-77577123D01*
X126400497Y-77577116D01*
X126394091Y-77517517D01*
X126392319Y-77512767D01*
X126343797Y-77382671D01*
X126343793Y-77382664D01*
X126257547Y-77267455D01*
X126257544Y-77267452D01*
X126142335Y-77181206D01*
X126142328Y-77181202D01*
X126007482Y-77130908D01*
X126007483Y-77130908D01*
X125947883Y-77124501D01*
X125947881Y-77124500D01*
X125947873Y-77124500D01*
X125947864Y-77124500D01*
X124102129Y-77124500D01*
X124102123Y-77124501D01*
X124042516Y-77130908D01*
X123907671Y-77181202D01*
X123907664Y-77181206D01*
X123792455Y-77267452D01*
X123792452Y-77267455D01*
X123706206Y-77382664D01*
X123706202Y-77382671D01*
X123655908Y-77517517D01*
X123649501Y-77577116D01*
X123649501Y-77577123D01*
X123649500Y-77577135D01*
X123649500Y-77775500D01*
X123629815Y-77842539D01*
X123577011Y-77888294D01*
X123525500Y-77899500D01*
X116769664Y-77899500D01*
X116702625Y-77879815D01*
X116656870Y-77827011D01*
X116646374Y-77788754D01*
X116644944Y-77775454D01*
X116644091Y-77767517D01*
X116593796Y-77632669D01*
X116593795Y-77632668D01*
X116593793Y-77632664D01*
X116507547Y-77517455D01*
X116507544Y-77517452D01*
X116392335Y-77431206D01*
X116392328Y-77431202D01*
X116257482Y-77380908D01*
X116257483Y-77380908D01*
X116197883Y-77374501D01*
X116197881Y-77374500D01*
X116197873Y-77374500D01*
X116197864Y-77374500D01*
X114352129Y-77374500D01*
X114352123Y-77374501D01*
X114292516Y-77380908D01*
X114157671Y-77431202D01*
X114157664Y-77431206D01*
X114042455Y-77517452D01*
X114042452Y-77517455D01*
X113956206Y-77632664D01*
X113956202Y-77632671D01*
X113905908Y-77767517D01*
X113899501Y-77827116D01*
X113899500Y-77827135D01*
X113899500Y-78025500D01*
X113879815Y-78092539D01*
X113827011Y-78138294D01*
X113775500Y-78149500D01*
X106999499Y-78149500D01*
X106932460Y-78129815D01*
X106886705Y-78077011D01*
X106875499Y-78025500D01*
X106875499Y-77512768D01*
X106875498Y-77512762D01*
X106875497Y-77512755D01*
X106869091Y-77453156D01*
X106860904Y-77431206D01*
X106818797Y-77318310D01*
X106818793Y-77318303D01*
X106732547Y-77203094D01*
X106732544Y-77203091D01*
X106617335Y-77116845D01*
X106617328Y-77116841D01*
X106482482Y-77066547D01*
X106482483Y-77066547D01*
X106422883Y-77060140D01*
X106422881Y-77060139D01*
X106422873Y-77060139D01*
X106422864Y-77060139D01*
X104577129Y-77060139D01*
X104577123Y-77060140D01*
X104517516Y-77066547D01*
X104382671Y-77116841D01*
X104382664Y-77116845D01*
X104267455Y-77203091D01*
X104267452Y-77203094D01*
X104181206Y-77318303D01*
X104181202Y-77318310D01*
X104130908Y-77453156D01*
X104124501Y-77512755D01*
X104124501Y-77512762D01*
X104124500Y-77512774D01*
X104124500Y-79358509D01*
X104124501Y-79358515D01*
X104130908Y-79418122D01*
X104181202Y-79552967D01*
X104181206Y-79552974D01*
X104267452Y-79668183D01*
X104267455Y-79668186D01*
X104382664Y-79754432D01*
X104382671Y-79754436D01*
X104405563Y-79762974D01*
X104517517Y-79804730D01*
X104577127Y-79811139D01*
X104807681Y-79811138D01*
X104874720Y-79830822D01*
X104920475Y-79883626D01*
X104931681Y-79935138D01*
X104931681Y-82945511D01*
X104931680Y-82945529D01*
X104931680Y-83111235D01*
X104931679Y-83111235D01*
X104969200Y-83251265D01*
X104972604Y-83263966D01*
X104998938Y-83309577D01*
X105051660Y-83400895D01*
X105051662Y-83400898D01*
X105170530Y-83519766D01*
X105170536Y-83519771D01*
X106063083Y-84412318D01*
X106096568Y-84473641D01*
X106091584Y-84543333D01*
X106063084Y-84587680D01*
X105969479Y-84681285D01*
X105961967Y-84694297D01*
X105941054Y-84730520D01*
X105890423Y-84818215D01*
X105849499Y-84970943D01*
X105849499Y-84970945D01*
X105849499Y-85139046D01*
X105849500Y-85139059D01*
X105849500Y-88268306D01*
X105829815Y-88335345D01*
X105796623Y-88369881D01*
X105610859Y-88499953D01*
X105449954Y-88660858D01*
X105319432Y-88847265D01*
X105319431Y-88847267D01*
X105223261Y-89053502D01*
X105223258Y-89053511D01*
X105164366Y-89273302D01*
X105164364Y-89273311D01*
X105164064Y-89276750D01*
X105163508Y-89278170D01*
X105163426Y-89278637D01*
X105163332Y-89278620D01*
X105138609Y-89341818D01*
X105082017Y-89382795D01*
X105012255Y-89386671D01*
X104952855Y-89353620D01*
X104737590Y-89138355D01*
X104737588Y-89138352D01*
X104618717Y-89019481D01*
X104618709Y-89019475D01*
X104612498Y-89015889D01*
X104564283Y-88965322D01*
X104550499Y-88908503D01*
X104550499Y-88652129D01*
X104550498Y-88652123D01*
X104550497Y-88652116D01*
X104545299Y-88603757D01*
X104544091Y-88592516D01*
X104493797Y-88457671D01*
X104493793Y-88457664D01*
X104407547Y-88342455D01*
X104407544Y-88342452D01*
X104292335Y-88256206D01*
X104292328Y-88256202D01*
X104157482Y-88205908D01*
X104157483Y-88205908D01*
X104097883Y-88199501D01*
X104097881Y-88199500D01*
X104097873Y-88199500D01*
X104097865Y-88199500D01*
X103684500Y-88199500D01*
X103617461Y-88179815D01*
X103571706Y-88127011D01*
X103560500Y-88075500D01*
X103560500Y-82288556D01*
X103580185Y-82221517D01*
X103625483Y-82179501D01*
X103699397Y-82139501D01*
X103714906Y-82131108D01*
X103894794Y-81991095D01*
X104049183Y-81823384D01*
X104173862Y-81632548D01*
X104265430Y-81423794D01*
X104321390Y-81202815D01*
X104322813Y-81185645D01*
X104340214Y-80975645D01*
X104340214Y-80975632D01*
X104321391Y-80748470D01*
X104321389Y-80748459D01*
X104265430Y-80527483D01*
X104173862Y-80318730D01*
X104049185Y-80127896D01*
X103955414Y-80026034D01*
X103894794Y-79960183D01*
X103894793Y-79960182D01*
X103894791Y-79960180D01*
X103894787Y-79960177D01*
X103714909Y-79820172D01*
X103714900Y-79820166D01*
X103514432Y-79711679D01*
X103514429Y-79711678D01*
X103514426Y-79711676D01*
X103514420Y-79711674D01*
X103514418Y-79711673D01*
X103298826Y-79637659D01*
X103130188Y-79609519D01*
X103073977Y-79600139D01*
X102846023Y-79600139D01*
X102801053Y-79607643D01*
X102621173Y-79637659D01*
X102405581Y-79711673D01*
X102405567Y-79711679D01*
X102205099Y-79820166D01*
X102205090Y-79820172D01*
X102025212Y-79960177D01*
X102025208Y-79960180D01*
X101870814Y-80127896D01*
X101746137Y-80318730D01*
X101654569Y-80527483D01*
X101598610Y-80748459D01*
X101598608Y-80748470D01*
X101579786Y-80975632D01*
X101579786Y-80975645D01*
X100500500Y-80975645D01*
X100500500Y-75624500D01*
X100520185Y-75557461D01*
X100572989Y-75511706D01*
X100624500Y-75500500D01*
X193125500Y-75500500D01*
X193192539Y-75520185D01*
G37*
%TD.AperFunction*%
M02*
